<mxfile host="app.diagrams.net" agent="Mozilla/5.0 (Windows NT 10.0; Win64; x64) AppleWebKit/537.36 (KHTML, like Gecko) Chrome/138.0.0.0 Safari/537.36" version="28.0.4">
  <diagram name="Page-1" id="Lpeblbt7TWhIdBNO85Gc">
    <mxGraphModel dx="1426" dy="743" grid="1" gridSize="10" guides="1" tooltips="1" connect="1" arrows="1" fold="1" page="1" pageScale="1" pageWidth="827" pageHeight="1169" math="0" shadow="0">
      <root>
        <mxCell id="0" />
        <mxCell id="1" parent="0" />
        <mxCell id="MjAnz1sWViExLMEf2HKq-1" value="" style="shape=image;verticalLabelPosition=bottom;labelBackgroundColor=default;verticalAlign=top;aspect=fixed;imageAspect=0;image=data:image/png,iVBORw0KGgoAAAANSUhEUgAAAQQAAADCCAYAAACvzrwXAAAAAXNSR0IArs4c6QAAAARnQU1BAACxjwv8YQUAAAAJcEhZcwAADsMAAA7DAcdvqGQAAMZlSURBVHhe7L0HgGVVkf9fL7/XuSdnGIbMkHPOQURMoKio6OrqmsO6i7vqYk7rX1HXiBETQUxEQQxIlpxhCMMwTO7cL4f/91Pn3e43PQPMGGf8dXWfd+8999wT6lTVqToxtnL4ycYXf/AxW7L6LivasCXTGasUY5bMNixWNUuW22x22wJ7zYvfaLst2ttSsXaLxVJWj5uV9T6TMIvHbD2o1+sKE3MHNBoNq8vVYiW7+vpL7Yvf+Yw1skWrW8Xi9aSlKjk7YPHh9p/v/IClrdOU+ti3kzAJk/D3g3hnxxQ765VvtPnTFlpnstsaxZplkmLmRt1q9aolMmarh5bbL6+9xJ4aeMIKEhrVeNlqep+UMJgIMP/GmDkmAVKqFu3xJx+zRqyucDWLx+OmaCybabc9dttHYiArYaCAkzAJk/APgXjKUja7a4G98gX/Yol8m3WmeqxRrVmj0rB0Mm3FSsHq2ao9uPxu++aPv2zLBx+3Qn1ATF+2uJgajkYITIRW7QCQeLHh/KDde/9dJl1BARpWLpctEU8qnZzttvOeik/SZ1IgTMIk/MMgnqjHrN2m2M6z97U3veq9lol1i4ulxsdyEgxxBYhbLVm2SjpvS/sesW//5P/s6XWPW7VREJeX1aIHhofxI+afqCEE/5qtWbfSVq1ZIc0AE6JmSakYaAg777irzZu7rURBQnJi0lSYhEn4R0E8Xk9ZrCRlvdZju+9wkJ107Iuts6tXvB6zdDxjtVpNrFy1SqJkxdioPbX2Sfvmd75qDz18n5hZmkSLIABa71uhrjjuf+BeK1eKFpNJwreJRNKmTp1mp77gRRaPpfSx/0/CJEzCPwholM2SdYtlZNPr7/gDX2inHfJm60nOsUYxYRnZ9ZlY0pJS8RvxopUTI7aysMzO+/nX7Nf3XGmj8RErx4pWj5XEzHkJkGFFmJdT2NKIrhIa+nagtsr+9NAfrCKhkpAWECumLVvutCP2Ps52XLDYErG0lWVJSOWY7FCchEn4B0Hif/7nnHMsXrNKrWSpZNLi9YTNn7mdTZnWbUuflGlQqahVl2kQq1silRDDV6TuV61QyduSJx+24cFhmz5jmqVzaUWXtEQ8J3UgYfVaTCZBWppB3crVgv3pgevsmt9fIU0gbo2yWVuy0/bYeT971emvs/Z0t4REypIJRiZCxiZhEibh7w+xWq3RgAnr4tJ4sz9PuoCNNgbtwcfvta9/9/+skSnbUGm1VdTqp9JxCYWqJeMyNaReJEqdNqNrG3v5S15jO267l6Xq7ZaVIKC/sVTKWzYXs5F8n/3Xp95ly1Y/YeVi1Xo6ptgO2+1sb3/zu60922NtqU7FJIFSRz1AQwj5mIRJmIS/L8RK1UajWlHb7vMJpAUkxZe1snizbrV41Z5a86RdcsWFdvv9N1osq6Y9iXkg5wKkblYVMzc6Ldlot50X7mOH7nu07brDHmLynKUkYWq1gl1+xS/tJ78834rlgk2dMsMOP+QYO/XkF0sYdMsUkWCRIMBcScSUCaTBpESYhEn4h0Ds6hsfacyYOs16uzssl01Yu1r0uEyIjJiT4cFivWCFRt6u+eNV9rubr7K1Q09ZUoKhVB2SttCwckNmBkwtjSAuxs40MjZ76nxpC7va/FnbWWGoZj+7+Jc2dVaP7b3PPnbcMc+zjrYplo63hY7EekOiQBlRWrVq2ZLprJ4mhx4nYRL+ERDb7ajXNmqVus2ZMd1mTu+yebN77IADdrcXHXu0JRkNUGNdiVesoJb+ydWP2R9uusZuv+dGy5f6rcEEpVTF4smGWvm6xeksrMiQqKasPdlj3bkZttsO+9heu+9ns+fOsVyuXZpITuZBRiyfZCoCFkITpG1YVR5SUSYFwiRMwj8EYgsOeV0jLSatFouWSdasWlpnr3zlC+y/3/oGy6QCY2La15hIFCtboTpiy1Y8bvfcd5s98tgD1ld4yoYLAxIICbF42jqyPTZv5gLbfee9bOdFu9q0rmmW9Vaf4QzmGUgQNKcmIxAcXCrwgFAI+sIkTMIk/P0hNu/QNzYaatGl+EuNr1gqMWzvetfr7DWnHmeZFt6EVRt6rotxK/Wy2nKGGeu2ZvAxW9u/2iqluBi/12bKXOjpmqq4Uj6TsV4pWEqaRjzGKETcmKYQi8VdIEzCJEzClgWxOQe/vmG1jKW8HyBvidiAfe1rn7TD99xeAoFWe5xxG7L36fBjFKJar/oQojGFOR6XaKDPIWl1ZjMrGAuekCcJghgTDKQheHQSKVINxmY4evwSFM10+GYSJmES/jEQT8bE2A3s/7qlxb2dbTmbPWOac6YzKXwqJmaCUSwmp2tcXJ/WXVICIVnPWbyUsWQlaal6RXHkLZkcsWSiIKfw8H0tEgZyfkFAVOVV1bWmK38hSBATkzAJk/CPgHisnrFYXC07TCqTYe6cqTZ7WqeYXYzbZGDnZLQBb791n2CMkiHCphf9gHQREKaR0q3iZF6Bfxe9ixw/fMA8Bhx9CmGNYzP2SZiEzYDWpqTpWCDTvGdiHOtmoiYHH1z0fuMuwMbe8GX09T8jSNdPiEel7qsph8fnzplh2ZRs/GaAAIGbmcHkTk+MPoSrkCzTwq9N6RAYHSmg5/BpC6dzQzjehzAIhPWCTMIkbDKIaiJujVyzJfN1Nb62JuZ7dPg+Hc2/iWtwxuH/bSp0zm9Ionqvv/4WLdyuyaIbgofZBDcJk/B3A+dpaK7FqbUKvE5ntho8v9KRrfavLkO1WrNajWX7Icz6bhw29qb1/p8R4nExcKPGwiaBJOjCbbe1xD9ziSdh6wEY9rncRiF0UaMRsFoXIcC1WqXPCosXrdgpfkxTeGaNYRwiYRC5f0YQViqWYr5BXYirVW3+3DkuGP5ZCzwJWwk8O28+B8hEwKaFinUdHBqyFStW2aqVq23VqtU2ODgsWkcrRihE7B3cBjIhEjwT3T8pxHY46KxGrZGSStWwjkzNLvje5227eR2WpONwEibh7wC0zK2mZrD1UfGbHgJaeamzG9y3AsyMq+mnVCzZQw8/ZNffcIMtWbLERvOjHm8um7Pu7m6bPWe2bbvNtrbzLjvbnNlzLJPJKM7wPUPlACNktVpDz820uCAMcNx7+KBZ/LOYy7GdDzqjEU92+HZmOy2abV//4odt9pSkzy0IpZ6ESfjbQqu6HjEVj9j5vmOX1P1EPKFWv+5XyBI/aJTw1Sr9AlUbHh6xRx9/zB566CF74IEH7PEnHrdCsWg1TIdKNYQXc5NCOp2xTDZjvT29Nn/BfDeVd9ppJ5s1a6b19HRZKpmyJPNrEE5oG2RIl4Qb17pXPD6f5p9ACLRC7Iw3fKBxzwNPSCBU7NAD97Iv/39nW1uiKsRR8KaonIRJ+BsCwgDGixic5yqdf2J6+LBQyLuqjxBIpdhla6rlcm1NYVCzp2UO/P73v7Pbbr/dVq9ebeVKRUKAGXJmVR+CDE0bLb4LBE8jpIum0d7WLsGTsISEz7RpU23x4l1t3333tR0WbW+ZVNrSqZRMDOVFecqmUx6fPpcLcYfGM8S3tQuI2LU3Pth453s/KATG7KUvOtn++z9ea8l6Scih4JMCYRL+9oAwACJhgGMK3Jq+fvv2t79td955pw0NDbla39nZ6Sp/e3u71P+sDQwO2dMrV7p2ACsiNCo1aQPecUgrHpkggqYQcJ6Fo5sXBAFh6WxMJpMSOgkXBLNmzfJRt52lOey4/Q42Z9ZsN6X53BUV3RAfsLULgghiw8VG42vf/rldcPEl9r73vM1OOfEAyyXZPHVy1eEk/P2gola9UChYqVRyppSOat/67vfsiiuusEq1YkWp/giDNmkGtOoVmQgwo8sS9tEQa6PlwqWJZMLf8x1xwegR4yqAHJrBOG3TwYg34ehYZ+cutIGUNIO0vm/L5qyzo8O2326R7b3nXrbjDttLS5liHR1tHj9x41rj3FrBN0gZyZftk5/+tL3u9a+z7RbOE7rqlomxZclzg1AxdrdxGYnvP4f0/H8Rotp9biAkLtR1VOOo9EDCzYHQHwDzJMRIHN7DF0seXWK/uuxSe+SRJa4FxNRiZ7Jt1tc/YH19fRIGJf+uKgantR9nboEEgHh3A/DceLjw0lvwqBUnXXn7e3kx9O4jDrxW/Ak9+zqdZnnIu3LvYTLJlE2ZMsVmzJhuu+y6ix100EE2f948S8mUiCk+hJXEiadHntEoKOXWokHESsIKh7I88dgSmzN3jqWz7S6dN/WEhHGBAOrG7x2ioR9g68DHJGwEJtTqMwBNdWAgwNlCDFKlY1AM1XC1nRmDgRmrPIt5Hl6yxL7yta/avfff5x3byVTScjIHujq7rVatWz6f95Y+MGhQ/yOaIz7+J+bPGT3yJDvce9BmeJ754bHJqGN+AlJCSHiACFQ8N0ekhXClLwOzZZ6Ewa677Ox9DjvtuIP1yJzJZkI/A8Ih9I0o5a1FIIwIe0khIsXOpzWpXImUNeJsYLIeOjYdAk43hK0DH5Pw54IalfHGITATGoA4wUcHRoZH7aGHH7bbb7vDhoaGLSv7v6un255ctszuvvceK7tZUBL5oTnUrVwUPSoOZtG20pQzeyvAaBP8CMNfJAD8OgFCmPB5gBAKf4QWIwwwcblctaJMmQqHCiWSrsG0t8tUUMtfKRf9SwReh4TD7Nmz7ITjj7NjjzlaAiOtMqb9HbDVCIS8CwRJsWqhOd6qSoizgQl9CJtQiDF9rSXsxj7bOvAxCZsIExkzaIfOYs6K0Uid9E/rHxywb5z3Tbv22mutkC9aKpmRFtDmTBSX6ZAvFqxUllkgWqrKhqcFRkX3KfX6A8bSa8brt85kJBKeIwiP4wIh/KwfzuPjddM0oM8gdG6i6te9z4KE0BSSMhMYacB04H29LrNH+WQnYdcW3PypW7VStva2Nps1c4a96swz7cgjjgh9HsnQwbk1QKxRGWlUhIBUOusoBAkxH5/ZxE7FOtNBwTTYDfsajFeEIKqErQMfk7AxaGGkMdiYX9MzWgCHWQCL3X7nnfaxj33Mnzm6j0lHlQpD22qBxUSEZa6Ak42YDs3C7XG9gW+JN1y55T48bAqTBT1gHKBNvnd/XhGFrggizIFSqezzDnJtORcCCAxK40JAeeSTepWNfyTAqiXXakZGRnyYM51O+/Dk7JmzfCTkne94h51w0okyg4hn62AA4XzEdzRqxKQCSQiUjF7TjRsMY1JawL1LVISHqr0uwUBnpD/pU2aLhaWnYc+DgP1J2NKhtdPO61e3POJg4uCvB9Vx1CnIfbjqpikMEAS0+PT2j4yOWiqTtUw2ZzQ+xVLF+xZKik+XoGR6S02nI3Sl+JottjMvTvcwpZshLQCjub3fDKc7729wxlccDSXQUJxcPSH906pzz3elQtH6+/psRGYMz53tHdbV0WEZmFhx1cT45VLBW3/OJCkVRq1v3WpbuWK5rXz6Kb+vVoouvOp0eso9/vijtmrVSvv++d+3ZTKJ1itH022pEGuUVwuLWaskOqwKcuWZaiIW2Jhkay1QXVISSc/AbEWIhwjoJcb8SEAWqsSEr5aanNewpQOEG9U3dcw9VR1VN/VcyBd8OI7Ovrxsa8Ixjs9EIcb+07KdafVXr1lrjy9d6pOFHl7yiC198ik3I8oSBorJ4xNrNOMepyfuYHoYDBeBM5I/u/45ls+wilHvYf4oTAgWwuie1ns9mpVwKMtEQcAxbOjTllUGwrgoUVx0ZCKA9CNBUPXJUSOjw1aRBqHEmvmjY1Q0rWTion+0ibCSEsFVt0WLFtl73vPvdtrpL2vicjwPUf63NIjlq5WG76Uq7YB2HBykKaMyH+W5NfNRoSI/BAAq4vBIQZpB3P54ww121JGHO7Ky7KUoDUF0og/YMGVyfcSWDswHYDw+6gyjpadjjd5/mAtGufrXV9stt9xiK1ascOFAB2Eml7N58+fb1ClT7YknnrD77r/f1qxb50zHEGOevoN0KjCnx7w+RCTm5BV+nPEjmEh3Y4C/v+JH7/Q/1h+ge8qB0PCOTan2zHVAAJBnpkEjzAiIyeDzEXSN6UoyZWkHQ4ODNjo64hpCXA1bCmL2NJk6FQC92AUTaWESSXCOjIz6qN1pp73M/vsDH/J8uMBp4nVLhdhvVzcai6eZdQoXmRiSTcgROycRChutugBRBVXqcctLaN5w0632la9+3Z5Qq/CZT33Cjjxsf8sIdym2SatzEkxGEW7ZyPh/HWAiCNZbuOhe9OBanzgEpvrud79nl1xyieVlBmAOZMVcU6ZO9dGBsp6rcpgUfO+quZMJrAOnskFv1OeEV5OlmrQEeAsPL/snEcsRZMI3hJSXt+hETcMkD/5gdK4MYyLgYHTKgo0fJhJhyob4sPnHTSElLMavSBsYHh7ySVJkBgUYXmDnJRYBkibpkwHwQoPofQ1KI4mGpHSZLIWwfNGLX2Kf/sz/uhB6RqG2BUHswI9d0/js64+1A2Y0LFMZFIYlxdPtKjRICBURFYQrhXHiaFb4U6uK9tVvfs8uu/xKK5YretewBfPn2pe+8FnbfsF0CQRUSn0csDoJWzBEggANYWBgwO5XK7985SobkZ3NLEGY/wc/+IFa2aKYpegtPz3vmA4+r0DfBYU+gN+LdLwD0flH9KOWBsZypvB//cDMBGwCzA29tDKO06Gu+HhoHviRg0G9BVYeEFJlqfVoMnxPx2AGbUB5QzhQxmSiOSqgsESK1oIJxPToSn7U4jW+DdoFAoGTyrmiHSTIP/1llJfcKCBZobHDZCJLccVfqQapdvzxJ9jXvv5N10gAyhHi3TIhlnvXNY1d2kfss/96sh08J2k5K8h0SCnTKauAbzQkK3tLn6CQjbQKlbZh3V7y69/ZeV/9ga1a0WelilRBKkWVnUw07LQXP88+dPZbZDZgKKA2IhXGK3gSNg8gOic8wYZYbFWvm6HGAjffRM8KyYw/mMKpt/m+KqKHwWHeFStX2qc/+1lb8sgSG8pLxZY50NPba226wvwMyVUVDsak9fWWlfgVn9vUuvqoQZP4ncFJRhc6nOmzhpnci2/IgGdFfhIE3hEoOuIFfmTTW3Qc3/GBGJDH8L4RhJTyRccggivFUJ/ekz5+aAXVWtltfDVnjgNMgXzTHKgyB4dopRHRhwCbKwWPg8zR0HlOEVTwM2krXf48hNIIWkJCuE17x2k8kbIjjzrSzvv2ty0n3Hk4fbMlC4RE7JA3njNabtiDjz5h2y7czqZ3pS0bK6tSJBREMzXhgNGCmiqIo1gqpZjd+9BS+/QXz7Nv/fgS61sj1bECiqWKxVDHkNYxW/7UUluwYJ4t2m5+ONkJhIHQSfiLYWNYDH4iTmea9cEZhxDUJcTuzNTwITZWBz72xOO2VvZ+/8CgDcv2veiSn9p1f7zeBTwmQzyZ0ndmeTEcAoE1A76kWHHBqIwowfRew0qD9Iif60QIe2+O5Xa9MGO3zRtCBUGge89++I4HyoFgQhAU6egTwHTtuTBpCIZmCrIy6ROLSj5SUJLQkDkwNGDr1q6x/MiQ1avQuphXFMw5IiqIx0VKvhu53zdz7JnAifG54NfMLPSNsIiGVZmxzV6l2y5caKe+8FQ3HzxMFHYLhVjbe34rHharN8o2JzVqn3/rqXbYzIq10RmoFmO4WLJUW4dJAcC8sq9/4/t2/o8usoIEakmlTsXb1EqgBio2IYTOllpl1DrazLrkLrngezZ/7rRQOU0UTsLmQ5NHxmDjmIQJ6eKiKqIQAe+oyggAWvmK6m1QzP+tb33LbrrxRlmJSWvv6PA6bJdpwA5DFYXHbIih/mJKeKsd4ibGsfzoxllcH4d2L6QbBALCZ4KfbnH+wiNpMhvx6H0UR3gd+iK8MZFD6LC/wagYnG/QBDKZrBogdikgjISTWv6aTAMYG0Zme0Bs+tHRYXeMLlCWpFR/zB1X/fWdk67unY5JT5e452dMDLl24wH1HbdBQwgCBEA78E5Fhu9LrLhM2lHHHG3f/NZ5Lqy2ZEEQQaKx/6vOKVvaysku66um7Pbbb7c5U9ps29mdyDkxcsZqpYRdfsUf7ewPf9Yu/91NNopGIFtCFqS0AyECiSwkoUmgDWVSel/JW1bXXkmFPRbvGlTULR8fWyw4Aba4jUN4w29gyNAh6PMG5Mt0Wt8rQALh8+eea1dc9WsbHB621dIOyvKrKlheLe6IzIQhlhOLwLHJw7AdAqE17qbTn78gCdzYzXgu1+MD7uUCk+uqoK2Mwh3xohm4la535B/NJBrmZA0Bqw994pDSQh8Ql1tJ72nxaZQqxYKNDPXbQD+az1rXDBAOqDosb/YGirSbaXIuqYoYhJVomAs/njce5HgXnpsCo/nCS4ufhIVrX7pHANNvsd1229kLTl1fQ9iSIWbvuU4YzaKbqUB1Swwvtx17avbB1x5mB2w7y1Y8uNR+LK3gmmv/aNbRZYMqaI0hykLVOpIZtz2dKOT8+5iqsV60WdM67YyXnmJnvuKlNrWnw4dsHH+T8OcDaN4YtOCVIFUxBIRZKpbtwQcfsHvvu89Wr1rjRNrWFhbkXPXrX9vTK1Z660kbjQmACs59QiYCAr5YKorpUIEVb5NJYX5nABIbI3D50FDyXoB3ZJaEHIVwTfHhLS0s5b7Nb3gRxeZagdIvyTTBzscEZesztBuYrlxSKy/uhal9zoC0WPoEaOmLPkIw6JOJGpwuFlQOTwfhEzQnPPWse4QNWXBm1U2DQ4lEx001RiED25PLIBD0WpF67uXpGgIBBOTZ+1D0DRpCUvxxzHHHSqv+xlajIcRy7/tDo1BWRhMqjMyGtLQCoclmpVbY9u0xu/fXv7EetRhVIbmaaFg1LSHASEQ1bqkGcwsYmqHwSNiKpHDJjj3qUPuXs15p++yxkw89MtQr+hhD3CQ8N8BMEFDU0iCwHSKi0iMM6kTNK3nzyvlSV1r1X/7yV/b9733fVX/m56Nes3SX7cFG1YJie9PJNsbszUiirctcs6DZdMrn/QRoZgWA2ZxrImi+48KnpOHpKBBMzRsP0oyXcXwmADFCUKX3X89M+WVVoc8V8EjQUhSHcIIjvPcR5Eetv2+d3tVdWKAB0CmJY0Qjqe85ldC3P1OioVz8h9adtKMMxxL0l3E8YUI03pAA7fTFWNG+B5gaCCjvM5Gp7fEnw/Zu3llIJcjf524Iz8cce7wLBF/WrXdbulCIbfOenzVWWo+VJLYTjYqkriRuPCOsDVhHadgKD91nnWuf0n2/TIGGlSV1a7KTRF5idEm9+rC+YTinbIsWLrAXnHKivfKM06yrPWFp0TEVAQomBcLmQWQ7RwIBexWIhuTgelTTgs+lH7UVq1ba6tVrrK2z3dKZtHV3dYkQvy4T8I7A4KoAVuthNhA3mh1E7HwWonbmcF5pPjvxIhBwzwUeUfN+AsBAofIRPOGWcvENvgglhABMTj6zWdGWGBAgC8789A0gAIhDYQv5vE80Kkuw+TEC0kBr8ictwiNEImbNS2C0S8PALCDNMQHoeKTMlE8NohKrW8VybSm18BXFlbK29m475pjjbKoEKXFf/8fr7OGHH1S+wzRrBIT4300xzALPsDx8FmQiZcced7x97etBIABb8ggDEPvarQONT1xwna2ppn2VIx0r5YbUvVTWpAdY+9BqKy25w7J9Sy1Z6LM2hhHpbMyXLNPWZY3SWuvMJezAA/ez/37/+2zO7CleITlJA8e3KAA1zQXCJGwSQLAABAqjuEAQ5YJLb9UktOkfqFbrtnLNGvv4Jz5hTy57SsSWsPaONktlGDYWwhUNY+vMzlO1erwIhxA5r0OL6+OAAgSFP/p7kTzEzVMzP88GhAwfjgP5D2kGLcQFjIiCq88JENO4wFNefdKQyolACNGgCVQVrtwMV7FKuaSyjNqIylT15cjMNAxpMFWeFZNoQS94wQts++23t7vvuct+fdWvw3vlMBg/xIxAoMcrCF0flnR8UFbRbi5l2VyH5dq77EMf+oid9LyT5U+4hl36y1/Y+977HgmjvK/LaGvPKX4JHmky9LcwbZ/DYVwgJNN23PHH21e/ur5AGMPFFgjx7VJDNqey3NpGV1m8WpZ9x8HwgkpcBU5Zsb3XUot2tdFp82w0N9UKllVhG5K4KRHkoO25eHv71Mf+2774uY/Z3Jndlo7LTk1DvPTmhgkezXqYhGcACKTVRYzUek+Lxp4BBbWIDP+VxSyFSsm+9d3v2F333udDhn2DgxIQq21dX5/19ffb8qdXuB3OKIHvN4A6rnvicoag/wcngvZxfxjCnRilqRn4FHZ5PZdTBJ7PVhcEjJgRRhfDhrH/Udn4w2qBS84cHR0dUsslxKReRy0sIwHMD8iPDlt+eMiGBtbZmlVP2+qVy22ov08qhVpjESmd3lIXlLZMjWrJ0tm0l5Olx29561vtbW9/lxov1imkFW2YNKTSeAmhSXCL+cJJ5gyrZ9syNmVqt/X0dEsgZGz6jOl24MEH6/uULV+xwr705a/YI488YikJr59ccIHd/8CD9oEPfki4ZHo3sxMDHkjFhbYcfSlbE8R2O+iYxvJRIWXW7hZfeJANZ2eqwUhZsi5Jl5B0j5UtkyhbcmCV1R5/yGIrn7AZ6Zr1dMTtxS97gb3p1adZu+pRdS4pXpSUN7f7AiKCWsXV7eBJ2ABgmIlAqwmzRK3IGmkBf/jD7+3hRx52ZmdewPQZMy2ZzthtMgkGZeNy+AirCctlJg2VfflufjQvhsAWpk8g4N9NDtVHjGP5YSgH7Pkm4So/IUshbd5sCoRybFgWBBB2fdRXkUynXBugVaaMvq26/FH3ERKUnVEQRgVGhgZkGoxK4GDymCX1wxXNAS7U5yqBytHsY2DaMB2pv/zVpbbXnnvbQ48ssdNPP82Gh0awSyREKI0i8LIrTX0tseWud2qvTZ8+Xa8kQEtFCYqMdfZMtfO+db7NnDnb3vJvb7Gbb7rRBdO0Kb12wYUX26677a7rT+yd73y70pYOonxQZ5SJadypVMZOOP4k+7//++pWoyEk2roXnZOlK3FUlZYvWldHlxNcOlZyCVeup6yS7rVSI2Udmbh1pop26jF72UfPfpM976i9rTtbt6IK/uBQ3L5w0VU2b+F8myp1K8EURyGaGpRC5RW5ZaJg8yAi+w1JP8B4GYOq7ENR+OoDJ4RWLKC9N1th1OLQM084hRLhFEpVGxwetY989BP269/8zu596GFbtnylre0blBuQmbDcRsT0LBziW+YXYBugdlcrqOJqFfXswlnxhvMFSDi04Nz6yL8Lb71zIm1pQck7eZaj/prezTgIHjy9XMSvP3rl6bRjxIKFQaSfFjOk0knvG2AGIVOAk/rWTYJSwSpi/kJ+2EYH+21w3Wob7FsjzaDf6pWCVH32UCAtkBUcownNrHoefT5Bs2zIu5e97AxbsGAbW6lW/cc//pELSL7xAApLLJx4fuyxJ9hrz3q9vfSlL7MjDj/K8oWSDQz0Ka8J2f4n2EteeobtsfuensbChdvYLrvs5Ds5vfENb7L9DzxYGknG+2p2332x78x89113u7lMX00Q6gnbfoed7MQTTxoTCK6VNPG2JUKic/pu56RjUtdUkUjGklQfJqc0ZJuVQXKqDY3M4pmcKjRls2b02Btfd4btsGC6n99QkTZxz7qEfeFnt9kVdzxkO243z7af3mM+UVNqWD1O5Xn/biCmfyLYWHkiP9Tl0Dve9HBOj+6bYkE/XGkRgZUrV0kLeNQee2KpPfGkmL1Q1HWZ/fLSy9XiiBFExGxkw/wAOhPZnIMWsarWyNVznKcTEuJ5HKKcIZSirJAB8hKI1P38hxAhvLfkuhIXaeDvYZUGz2MjHbqvlcMyYdYFyMt3REII0CqmJQTQHNlchL6AEqMchVE3Cwb717nLjwwqjgIiJQxfw/yeIdINQiAwtiDKoh6DF/kKMwTPeOUrbe7cuT4L86ILL5CwZdSAMBK8EsA9PVPs4x//hP3n2e+3/fY/0Lbffkfbc6+97OhjjpE50y/Gvt1e/vJX2fEnnCxGZqjTbNq0KbbzzjvZffc9YK8587XW1dPjC7pY44H/tKlT7corLm+WXZqxTDG0sh122NFOOul5rhVtyYIggkTnrMXn0AL4+m9hdkQSO18csY6Zc2UuSKVr0NsKwcasWEtYf6Fqt911v+226642ZUralhUT9qkf/N4uv+NRS3TPsMbwgB2z7yLrlIJA+b1jCqLxCtvyEbIpQCmikkT3rX4A5YVYYfYxcwmqdKoOJO6g1ofZdxdcdJGd9+3v2K8uu8zNgPsffNB+c+1vfQ4BNrazhfCIrYoAAHwlHxqG4nRmbeLaW399gA4QrkD4DVVAHpr1EbzDd2peeY2/Bxv7WM8SQrR4PmQnuoj2D2B/A0Y56Bvgo7b2NpkuaWcABABbjSEEFLnPEWB+AEKgb+0aG+jvt5HBAatKQGAWIADQRBACUbYmgmepxbmf//GhBILw8IpXjAuECyUQqsITQ5IIJmJ/pQTG2976NgWP261/utV+8Yuf29x5s61XpsCiRdva9X/8gz362JP22GNLbe+99/E6+tGPf2i/+PnP7KYbb7JHH33Mdlu8m3eu33bbrfaZz3zafvOba+zhhx9SOsqJ4vXOUmnaO+2485hA2BogXhUSIU4kcnuyZl31AcsMP25rH7rFumtDlqsOWrwsG0wIrSfbrZSZYUtrU+3937zcfnFf1f796zfZVQ8PWr57nq0ud9g9ywrWr/r37SepsWpSla0Kd5Vv6wdnmBb3zEArKrs3FU79oXefXYLKcnkm3Kj1L+hK5+Dd999nP/3Zz+ypFU/bsJimT6ozh49gf69cvcqWr1huA2IcbGxnVrlIK4jy4C22wgNRGIRxxNxjzONX/fDf9AwCZP37MSc/1ipwkhJXuoRG86pjmSz9/YMuoBACU2SD59rZhi9oRjB2TYxeVZ4xCQb71toalW/FU8ts1dNPSSgMub0O3fnyeDnXCNQoRUJhU4EW+dnrIoRxE07XM17xCjdj/vCHP9i5555rN910k33605/2Jc90KO600y52l9T/q6662orkX+W46aYb7IILfiIh8YhdeeWltm7dWsfPk08+aRdddLH99tprvZ9ECTTxhkajOgAXEhD4RdB6v6WBcqoMqlKSCVVMsd+mpgt2zO5z7Vvvf42d87qTbFa6ZDlVUlWVajWpczIBGom0PTIUs3d/9TK7aZlaCGu3eko2UiJrfYWk3f/kCIMUItBQTVUqfDMqeIsGivFMbgJEE2CYPgxD3XPvffbDH/3IPvaJT9jHRYCf//KX7dvf+7794frrra2zy9K5nHXoysajxXLRVq1dbSP5UX07TmgQtQuCJrP7iAHagYBn/fo9ME53ISyZ4Y980WICGyNO4gtj8yIQaTe0ePTej45KWPk5CUWf68AZiD3dXZb11k+MLEWIYcBSYcSGBtfZiBisb90aW75sqa1YtkxCoU98X7Qk5kBdAg1VXkIgpW/078TIgiJloDXzY0ARonJHDmZjBMNnCDaLvlGGkx9CgE7W7RctQpmwY4892s4///t2/g++Z1/+0heto6PdmICUy2ImKy+KE3OEuQyYOO3tOWWNA2JYC5HwJc3gh9Ea0qcvw7FM+vonvyF/aCZbByirkswyC7o7M3by8YfbV//3I/b1z3zQXnTAdnbKnj324TedZvOzBZuSLFqmLvuoXrZCpWrVdKe0hSk2Uk+aMK1KLHtFjlYTdtnvbrb+kh6FLB/NkuoUyGvrBSo5qugxBzTvGU3hNcP8TTkggsBu0r2o75rf/MbO/dKX7Ic/ucCu/d3v7ZZb/2S33na7/e66P9qNN99qa/sHXGtgSBE7F3z5oh05xrTphW8ldJh2LE8CZxAnPJ7H/QEIE3BBQOYE/q3i4BUuMu1wPnNPGWDrcfYbXLVqlY0Os/dm0nrVgnaJcTLplGEIMT2YFpT+J4YI+yUAmDW4ZtVKX/HaJ6HGvoTiHzG+PvBhQjo8nfj8PuyVyCgE5Va+4MJmnlshZE/vm38RsE7GO/HAQdNFQhJmRDvDbGMWJGFcqMqPiU1PLH3cVq5coesT9qQE15NLl9pTy55ywdFkb8c95a2oHJTVtwRUPtAeyAbDpd5fQ3DwyFdkVqDc+DUC/Mnflgrx7eZP9b0LPv/ZT9jnPv0RO/LgfW1Ob856cw2b0qjaYdtl7exXHGPbZPKWM0YeVIupNu9fiEsIsNcB26S52ifJX44n7e7HVtrKYbMy9eoTzthPMbRwWxus3/pyI6diQFBcKRJ2K3ou4/39QwP28KOP2l333Gf3PvCAPbzkCan8K+03v/udrVqzVt/Hrb2j01hFODQ8bCtXrbF1EgaMENBTzuQWBADMG/oH1OrCTROIyAmfvxb/CL8T0ezCQ3+0frRsgH/VLAdCwsvpzzUbFaMMDgz4KAGtHrP0ent6/FuG/mCOpAIzQoAQGB7ss8H+tbZuzSpbsfwpW73yaStKS2Aqu5sBLt64YukrEbQAnPuT2ZDh6C48PTOQ94jRyDdrLjLSWLiP8AEu0BxYqg3Dos7T+4+pRd8LcNNNN9p73/Mee8O//Iu97vVn2Rvf+AY7/WWneb8AefPNUGTSecuveFlGDQ4ZRiUZ0iS3pIvACTTRzH1UL80LsKULAyDxhz/8/pznn3i4bbtguqXFvKxJsBqSsOZ7K7aJfubP7rRpc3ew3971mA3XciokiChbe30oxALhCjEIC9bQV0cGbM9t59iOs9stKxODvRYD+YKnLRshEyHKrzOMgFKgpnvzpn/xsHhchCdC4xSi//vqV+1nP/+5XXnVVWr5b7brb7zRbrvjDluLuqzPaK1oWXzVobdUEgRNhuQZQoK4SNXT0X/IQsAg+ZnogHFhC9M175p+Hka33hI704R8AGkxN88j0gAGhwZF9EVnpFwuKxW6098zTIg6j8ZQZiSqMOojBKwhwCxAKxga6Pd3NJ4pcAPDKy3fcswzRF7k560/Dr8W4LnVjd+MAfkM5R0vO8xK1AhROj4RuKeddrotWLDA+vv77eqrr/JYOC8BFT+fL9jixXvYzjvvbPPmz/MO0KVPLhWuanbKC55vzzvpeLtDAoFZoCxOOuPlZ6gYVbtG8TwoAY/1lh8t2nHHn2Sz58z1lZe33nqL7bvvPt6f4OaD8sBEJ/qPdt5pFzvhhBO9TkMZ1i/Tlgbx+dOzllMDTsMRESzEnspICxC1+w4y8l8wN21TpC7GkIoUSpXtdmYsSNtGnVlm8hYSytkZdvM9T1hNdVWuRkIjXLYmiBgKJooEgvuIwlXnbh6w03RRxLNq3Vr7gkyCO+68y1aL+UfE9FyHxDSPPvG4DQwOBxVTuMNG7Whrt1wmp1YmO9YD7S1I8w8A76ToW3gJ17zfmPOw/ss13OmNX7lD2wBQnyHMcI2r9VQeV6/x3nhazk4JgClTeq2rq9tX57n9q+9gfDYVqUojKI4iAFb7rMEVT9MvsFaaolRqxScDURYBU42lmiu/tC0IBPIQchTMgvG8ozWSXzmmy4dehOA2wjjNojYhPFAv3GHLg0dGddAIcLsvXmy3yyxjK7iHHnnYrrvuOps7b6598YvninmXOi5e9vKX2Q9+8H274srL7a1v/Tc7+ugjrLu7w/s1shnU29BfwBAvcxAgeRY9PfzwIz75a/vtF9lVV15lZ//n2b5wDIhwHwktgPJu6cIASHz4A+89hwqRQun1wp53EIJPXY2lbFjVvHTE7P87/7d275NrrQhtqmIRGtU46x+oQKlrmAVQj9SyRCNt2XyfnbDvIpvezpASR8PxMiBpa4HWvEI89KgvX77C/vCHP9qll19hN9x0k91x11321NPL7X43Dx4RHmQ2qfWHOBmWglCrEhoDA6FHHjuWXX58yFDEixYQHRHGmD1aAjZrEAZKF+EDiak6WhliAzzqGb9Wb2c6/YV/4qgbm6SwtmFAZgoqbndXp08f5mh1P51I+SUKDi1hARHLj1Gb6VRbvXKlrZXwYOiQptI7ApVRdiJCaGGfp9RKk2fvtNR7z4/C+FRezxXe0ILC+Dv3igIqTLiGv2eD5lsYTX+U1XGZSvucAg5KYVbnoDQXdkdiiHP1qlX24x//xNauXWs/veQS4TttnV0dMt2G9L7PHn1siV180U/slhuvV+uesba2Dtt//wO8M5URhnVr+5RezLo6euzGG2+26bNmOM5Ybn311b+2K6+4wstBOZmHQCfmLrvs6hqC81Rr5WyhIL4vKf/I9qDSgGcqM6bWYySeswfUwH/k+3+wm58ctsFayhosf6bFomyoaHVVrprLeFVEEa9aQ2pWolKz+fFB+/i/HGsv2LXNOmujij+r8EGLCFX9lyEnIq7nglA9uPH0YAQ667wjCIISExDGO7VcE5AqKsFI6+V7A/rbmD3++GP2xS9/1R57fKkNy87OiIHZaQhVlCHCkZHhMVMgqxaW1orxeSWh9CDaKBfNvJC2EwmtOCvzsPFZkSgtS9oEk8RoyZ3YlWeYFQ2OMGHxTMqZwM0A/tw0C+X1snGn6BE+I829A3OsG5CwSiU4mkw4IFNNaeMrCuXAA+kXJQRGWPbOGhfMGcIJmLcSIFxDaYjHbwJvr3cjQCDoPV4Rq0exjN/xMrwbT+PZgVC+VHssioRvqkpHY5SedzbqFQui6nKsjqRvq2NKp/VM7RG+pTUJRxmFypekCSUw5bL6ts0KqsORfNEKgwVLlJhcJc2qMarv9U0iI0GqxhCtiHk8wnkgH6YuNyzX3mkveelL7eOf/LgLfOp6S9cUYiqEtLOQUffQPQUrN6p276qCffonv7drHi1YoW2OlWvIdhEfhCFiqjaFAWucE9W8dzDWpTUwVt1eH7WT95xt//v6/Wx+fUjxc4hs2ismICRoDH8uRPX/XBA6tAgdVYLKCvX4P/at8qH7iioVwgJQ7deoFaFfAMGBpM/m2uyaa66xiy/5hY0Wm5uMtlQuQ3EAz6jbMCEaAcIBRgYiHLeCM7D8+YNsERyo+FnZ8PTqj6qVJq1w2A3CLKTJVl268TjRMBhh4DuWBofCNSScgjZAa4X2geDy6chEhYoe+FvEXPbdhqhXVhPSH4AQKMreZpg5TBUO6TvuIlS2gIKMQRTWf5v3EYzNNFwPgrAAom83AHlHgqQVEHhsuDIGkdrhOEVA6gmc4qW/lPKfZEQjpnpJJ6yjh8VVOem4Cq2GrC7/Wiom3MWsMlyxPqZVix+ysax1FhA8MlGSdasQp/DOKAlDqNEU6iAQWPnIcXAddtrpp9lHP/FRxz0Ab6EtbKkgQRyqIiJWKoRMjyrTv7nvcfvaL663e9fGbaDWaZlclwiH0QS1YDILpBgLEWU5JKOIRsiiAiDa9kzCpjX67McfPtX2ysjGFGEJE6GCvNL/XkhRuk75SrNJbBHxMVEIfzbQoKJh4tVr1tg3zzvPj+BSwTxse0e79U6ZauvWrbMVq9b4NmMwO+WA4SEGVGwYP2rlWdFHel75iiSMGITytwKq9jhOCBq0F+JlSW17W7szNjsKM5uUPgfqCnW2KuYPHZIidX2PP6sE6fwjTwiUjDQ63/XIi48wUF4VHzYxWgaz+HwqMYJDQoD8MGyYTif9Hd/WIPix/IFP3UwoyMYEwsYg5KP5MAYbEwjBL3rmym0ULgL4f30vF7FNz0BjfFsT79ZouESbHG6sR9cU0ARzHTlLqqVPqswxVvmWqjZSGbb0QN7yqtN8FnW/YtPzMovqCTV6nVZQXZZTik/1G23EQuOCQzhXK3Vry7Xb6S97uX3s4x93E5J8gL/xMm558IwCwVVftYwrpSnev9rstof67Ibb77FHl6+2tcWGlTK9VpJKxfbsFToU4+3EYrFaXkRF77IEQrpsnzrrSDtjB5NAkCAR44GKgJC/p0CgbJ6yl5MZdwgn1O2QF/lJODDphkNJWUtAiw/TdHf3SBBmfZYg8bC9NsOLlBEBQHzgi3sYFOExNDjkgiBqCQjjxOB5ca8xCOQL8YcXoRVU+Oa3vMY04fvRArgN7ziSnJOUfT2DBADMy9AaNm02I5NAxB2tJGT6MPllARWCjF7zsu45lo3NQxAIEuM0XzZt6hQfbgxnD6jVdM3Ec+4QnjaEv0wgjEOEhwiiuKLrxPeeofUi1L2kRAgFNoMgSassSZWvqozWJCzBIV8hqNWYWznZsIo0g55y1nKFhg1mhm1aCabvsAEJhEJs2KZWipZW2JFqTvTDGg0lhaYAjuXvAl/XhK6YJ2geL3/5K+1jH/2Um4FOAwr7bPj5R0PiHEHz3iHKdKqSt7SIrDeZsRlpswO3z9nJB25rxx2wm83pTlpxcLnVCuukgokgZTo0EgxHxi1Tl20do+dXBRchTk+W7fjd2HVZLSQV0UyDyvqLYGNUuVGI0grpIQw4fPS+Bx6wu+65xx546CGfFKTc2hNLl9l119+goHGj3W7v6PLwdCoVCiWFYUVhGFVpZXYAocAQFC07x4KN9VEIHKfcbCTPvPOc6cfxwr/ihhmdeIQzBA1aQDgKTbiVIx2G0EakidAJmWV7tN5etURh05CwAanKqzpkONBPWhLjcxhp/7q1PvWWw1YYCWAFoiJ1x3eho7As7QJFOvTiR+B5VL42hv5mSZr1u3HwIj7z6zEI4dYPGPm1OvdcD5oitpnBKKe5qlrsikojfJbl1M4Jp4pDfhmZT8ysiMnaSqru6jGZWhlGYmRmlUTXlXart8+yQQmHhoRFKk2PW9mFTBwNT3Wh5kV4C80cfRYMW6alne2++x527DHHOb1E5YmuWyKoLDXvQ0BdRtWFCCHulEyBIPbJvBwYVqtfi6VtRAJgjUzmpWtqdv19D9l1S9babctGrSDkdtWkKsdTlo+j0tZtz6k1+9H7nm9z25ieJIwrLRAWUPfng2eneR9BRARAaLWx6YJEplyo1StXrbJvyCS45777bHBkWFK83bKS5F2d3d7Crlu7VoyWl9THtmYNgirbVXgxhuIIcqBJZnqOKpd3vWJINiZZLyOCVgLwfIQb96dHnnv8HfQIY/FMGdyLz5UwggFhgSbDuDqbjjJvgP4Bz5sEWaUqpheR0u9QlRmDGVCQQMMkqEjLYZMSx78nS5rkwy9+hXA7FDdrJxhuo/XjxVj+mjDxmfaW8hAV30RpeGG5Arqn9J7eRqGJG0EI0mR67ojbb9f/mC88iWY4sjWetXEaS8C4UuuraHIqY1xCIC2XlGqfEJ5jKbE4pq9Mg0ZcJoCotU1EsO1I2tK921hl30PtjpS04Ftvs67CEhnLNCIKq7hjEsDSGUVfwoIEKueTFEo1a+votDPOeIU0hI+5hkB9Rg3JlgqJ/fbb75yHH37YK5jhp2hMvJpQa0RXrPCs9ko+9DKLOdSKZKUf9aTjNq8rbvtvP92O2G8b23/xDjZDwjRbWGn10ohLYLq3qrrfY6eFts0UIdbb3QCoV38xKDKv+2akYQdottJiuWvc9wqAyVlAhGDg7S9+9Sv7w3XX2bBaTPoQ6PUgTL+0BBxThzEJoqnIgHekqczjeQ9JRkQIkB49yQzVBeIdf+eakZ4jJoq+xfkW5xBk8z2jCRBOxBoIJNR84nWhnUj6eHeyybhoB/rAW3R6uosKV8bckQAYHhr0VYUFyqpv6R8IQ4XkgPgp/TiQT2xhhI3vwKz8eD0pUGt5gCj/kSO+8fuW8H5tuma44J4dwufEF139ZuwaQcBpaGQ8dp49+vCNh5YfJkFBpI25EJdmkJQwiKnBosyyZ62UkBnFcv6UtC19tY0Ewc4SoC8SLvadPttGO2bZ8h0PsfaeHWyoUrBCmU50xR9P+ggTO0AzizOkyFCzntNt0hD2tGOOOWrMvCRP0XVLhMSvfvWrc370ox/5LKvTTz/dCQFp1sD+lCiQDBWy6YJBODBsKC0CddiJXKpYo8+mWcnm92bt4J2m2jEyKY46ZC8hxKRqD1p+aJ21S409eKe5loshJkKl/sUCQWlHpBU5RglgclThn//iF/azX/xcJsD1PleAiSlPSzvgnjMH4HGEBGfw0T/Afnw+a1DxBFDFiYEiCHmmEmm1x0MB0TuEKb363CMgqPjWyncmb34afQOxBlNKfxCr/JiqTD309/VbqVjyPgRGLuggJD7OJGAOQ0PCAObHVUtlG5HtP8wmIwNy0lRKMikgUt+uXAkziMIVDWJjQJ2AE1Yv0sdAZ6ZPm94EoLxB0AQIZfOb4DEG6+MOIEiEjzG8KKfh3fpXILoVKjw6xzHhm8/cE8TjIqB+qyo7wiAjRm3Tg+SDSFqCIFW3kXjJBUEjWbWcWvYdC3V7YXyuvbKty44q9tu0kX4rt/XabT0L7enp25ptv9CSqoPRvhEbliKdlLnGUXDglrwJ4z4il8xIIOyxhx1z9JEuEDwnGynPlgTSQOn+Nzv55JPthz/84ZgdnI5LnPobgfLOCCMrGCElWCIUR3ZzdUDh9BTPSCOQUYC5oMdRvR1UwAcfGrB1q562lx60k/UK+V5J7jaN0CKg0luBto1kAcxf0aMLIbYb+9zn/tf+9Kc/+Tg9LJ7rYNpqTgQrRhPz03qyZoDvAPKDruDzEJROQy2IE3eT0AJZkWdQEv4mAnF0dXW5Og9zhH6AYGZElY8/rT9pRPPjQyaCZoBJgBYQzBTZtUwblhlHXAnMNfkzjZj+AHr/ffdh3a9bt8a/Y5gwDBF6cs18NnHOMzj092gCvF8f3F/56+7q9vhG86PSSGgHQ8iJddAK5BOcYaq4yaA8g7+xzDTB57i4KdoK64cBwmfj/jxHyUdR8hzlKcJxaGii77gXKAx/CQXNVtEOpEWqfRuVECilapILFevJ122m3p9QTtiLql22sDHdOmprzdJ91i9L4U+9i+yinU+3SxcdaEOxrEzjvHXkV9mKh263ypN3WUej37KVfsuJC6BtDjPKdvTaq898lX30wx8YEwgAeZ2Iyyj//2hQ4xE7h5YNgXDSSSeNqTYJMa8lxGEcWqGy+KImPpDLqCwZVWy6Vlbld0pb4BAKOqPYGqthWYhK195qwXaZlrS9tum19lQYknFm8cJvOgI2RojsJdAnFX/1mnWu/oe57HFfsHL55Vd4bz9fsaSY5cdsMDo4PCT1Gzs6jIJEldBg4sRYdhACoYIiuuXqr0VIgbQ2zA/AWDOboAKtFcx9VAauMA54QABg06MFeL+FWm6GFdHQWF6MRkDKDGkylJgfGbUhmQEwHZ2Fw4NDMguGXBvwyR+qEzWC+kL1J3WAGgvpUgCc/6sYzZuJ4HXM6Iss6GbazFJsKcozAtGjXZAaZYPxPdkJHwdhgF+r2xDCZxPfKX4+b/pTNi9KMw2u9PdE7yNRTqBQMq7Cp+ymvNq7ioqYkcCcP1K1E2QivLYxy54vBG5rA5aW6ZRoqPFIVpwN5hRiNmV1yu6aPdXyPbOsL9Zhg/F2mzZ/gXX2tFnf6qfUHDJlm2F5pSFcoCHsuZdMhqOOaKH7zYM/55u/BGIivsasWbPs6quvtm222WZseCQoDuOVJzL2JyC84kftr2wo2jgQHupaP813QZdwT/1TUUGoBAjxtgKfUX4qmpbKhVPT30HvYOZHH11iP7n4Envq6ad9JiA97B2dnTZj+nQJiT57/PEngs0tZmMfAk9GF+KkbFx59mgVuZONCIFn0nan7/jMK0QuIi4ndC9XiDYC3qLKM5GI1jXuMx1hkBA/ccMwhERAIQRo8dnXnzF/NAYEJmWGaMcOLUFjkOBgyLDk25ONNOdAmHcqIgBYmeijGo5zL5ViiO5CHiIIeVGelB5ayZig8MLonYQexNvZ0SVhM6znmt41Y2riJgT13zFoBnEIRExYYsRj7KcZV0tgQZQ2EOWVJ+iMGYtDOTUyVQncEvUXt1GZoDGprAm5WEyankzRdCNjqWLCStmkFRPoj1UxsvAktaCzpDyrqGU6/xJJKzAvQ3U4ZbRoeyjeE3JddrBU/PkykTrqZcnWquLIWrfMgUIq741hvj7FHund2z5+2BF28+zdrS8zU61pyhLVUeuoSjMYfsJKT9xqI4//ydor0porHKHfZa95zVn23x/8oDVkbaOFkrKP/7DQpyGnQrLNIO94LiktDPRMnWFuZU6N7Qh0Ib8cz+4XJjn9LSDR0dFxzle+8hXbf//9vYWjwoEgaYNcpXqooMiFG/0oo4R2PyB62XyHEODgy9DyCERsDly4J5zS855seUIMkbrpKnfTn6E2mCm09CXfxfb+hx72ZcOcqsMWZIzHP7F0qe9LyHBcOJNQ3/Ovq6chFxF1IDwcv/jBDMGrGTTkTy4IheazC4QmU4TPPb+o764265n7YH5AmIDiVx4QFKwlqJTU6sg2pxOXbcYY9uMZW5/xa5YfY/9XVK7C8IgNieGHB/psRNoBw4ZuisixDBkGQ8uApII67glOAM+8/wXQVfkB4+Fcg5r3nxAXfhyPlstm/Ig0/6IlTo9jI4k4ilrD6YHHJooc3A9PhIJfgwtxEgIIXwRhoGxSPjF1WmhnDx+Apfe+G4PwbhIGMWlWyRhTiBWJGF41rzASjmra6StIyQSsKeFKOi6zt2YdpaItLtbspESbvTjdaUeIxxYUhi1X5xBZvlMc0oxTEpgV4XhpV5vdMrvXblg4z+6dt52tyc60skzkhoQRIrgo87qem2LJntmW7p5pxaoEvgR3ZyZu++y+ix15xCHNAiWkOdAByQ6mTZ6g6BRUBCf9zirKJ2+SJk0D5le58k2/NM+kSF/e3wgSz3/+88953/ve50OOQdWDSMbV6U0BQkaho3sqOZBE9EYw9tj0I40xBynQOokkIXjlI+rhZsgvCAizYTHIxRdfLOQprCqOvMJoHEhC5yA9vkGQBEAb8Gc5FwRN53TX4sJIAvf8eLKOgwgNzYug+QHggUI4Z37lHQZn1MJlnxxboKPy02nJ2QOM7ecyGWvzPg2FUSUzOkBfAHsOMjzIOoJRmTcMgWISMLMwtP7iCKXlwkaE5YuhVD6A2YRVCSKfjDQBIuYEItwIC/oNAoS5/Eyi8dOUpSEi2Lj3WYyKMyqjxxFFNAHwbn21MfoZwycM0AJR7jxP4V/MLwaRd0FM3FWkEzBpZeVLbb7PJ0ipHOVYWFWJdVuXljWUliADL3J1CYO82qJcOalr1ooygeqVmk0RLp9vaTsz1W7HK6Edy6PWK5dQPEzHj0uViIveUhII/bKN75+ZtOsPmG2/OWEnu2qXefZoerpa9BlWVfhGYkQZFeOKP8ti0nyqx+pTF1pqyjwvUVVCYb89drBjjz5A8ccktFAT6JSPK7xuRd7e4Stzz1EigqCfg6WCCGbvwPdO/Zj89Nr94IkN6/ivBbF77rmnsdNOOwX1XEiOhALXvy5QYhwErTv9wIORJuCESpq6giQwSh05YzWhUCzbH677o533rW/ZCMNrUqOdYPm2JRwAgxNnIELQS6L862dj0PIuItANAG/y2hIHgh/mZD0BJgBqPIzJ7kfknZTpmEMYeKzkSRXOHAcYDkFB24DmMDo87B2DCIRGUwgmRQCeIkQO8xOnyoPgZMdfTAs/SWtowLWgjdVba2lAlRdWFJiUdpDJpCyXay68URqUnfYoLTMMQcZ270zO8vfh440CaeCiIIQPuBoH/PD29J8B/Av9p1TWqpA7KBNg7hBD4Akblc1Py98lpi7Lvu8mnITZWjH6SLvCqOxzR8U8wu1QsmYD8uuoZGy0kbAehdlfJsAZjU47JNWwntqAZWp5CRYlqjyVYM6qtDQRHYK6kEzbhYd02Q9PnGk37tRrI5np1tM3z6o3pa2xepplZu9kfcKbbFIRAaNvOeWbBXxi1uKgzTHVx8qH7IUHzLdPvesV1s3EPJkwEH09lZNWweQ3mUFyKeLQk0+tdl9QkJBADOYj5o9n0gXBX5sv14dYoVBoMH7uDKpKgKBCxXnNbRo8U/22RNEaBEEAsbDTEJ2BUIn3XTBIjkakC3QN/TNLcOWq1T534MYbb/RRhOGRUUc8Y/jMCkSTIKlIAETAPX4RkQETw7TCsxF8BG7rKbKxGPQJEjyYBOF4sUxKrSstiEKRFEKBaoTQMAUKoyMh7xIITB0OIx8SICowrTOtPCo8AoaWw7PrEYX4Ig0BkwPglKG1a9b68KT3L7jvRoDvm7ccLNI7pdu3RMtIq5HR40ucmc5clOBls5Genh5b+tTTVpCJAzh+HEfkxb3GgEdchELHsR6ajw744a0X/jwRWvEflxmDmV2QIO0oZfScFINIkCZlHqWK1las2Ivr9B1123UDq2yZvlnbkfYzRXrzNetUnouyM/Jisn2G0vZi67DDWO4su6NHLXdWukYyXjXW+o5Kk6C1Tqup70t32Y16vmXndrv59EW2XBrCOnHtKPNzYlOs/ZI1VrlmhfXM2M9iOx5oiZ451m9tVkm2qc4blkmKPirSHGpF7xuaJi3m1UfvbS8/bhtbkC5YR6wQzkdO9DpB0I2A6eGmihi+KA+ohRmk6AfeSen4kjBAOxjD9N8GYiIgn6kIIQNRpWyyhrBe3fIwnlkYGqFGlLARDIEwgGjvuvseu/vuu22Awzz0rrOr26ZOnWqzZsywmTNm+nLdewhzz91+IAmddQwXwvxuFiiuVgLifkwARP6B+kIGIoAodYnCRCSLSAle4TkSGqEjMLS8vGe8GXuftzCsp0dBBelUWM3pfQly7HsA47IuoCq71Wc+quxR56ALAb7n42Z+HHTvqcsrZCMyScbrBNpAQ8BMYnNQRh8QIpGwXQ8os1xUZvI5d8Ec6+pq92FMNj7hVCMWeSEQ1q7rc0E9dfo0W7m6zw+LQfuIGowx/LbABCugCdTFeBmCQNhIQN7LuzXemmx96jhRY+g4Y0n27tRdNVkUpxTsQPHcf2RmWW8sY1eW++y8+rCt6c6qkUlap1TwqTLBtlGDvHsmZkelp9rewv2M0ohVpWEwEhYXouhobIhAS4m0rWvL2kPpiv1RiV5VKdnAgfNt8PUHWCmWl7Ao24jkQTWds9k/X2orf32/ZfPTLJnbwbp2Oths2/1sUGlUUqTPHqXFQPfCVUrmzVSluXibuJ31vN3s6J1mWrfwnWFYHymEiiKzoyIayVeS9vhoym698z57wRG72xQJirQESiPObtai0GpJ8SIYwMXfBsamLlMZodc7JBYxxHMCFDghLPXqLCJvqtiJQmXnijrNhqM//skFvlEFe961tbfLdRjr9MU1kI4N+iGlQqziYGQBgiQuIDBR9DQO7t90EWysHFF5W8PB1NFwoD8Tf/O1x0E07iVVVnjyllj+KZkKmATExTMLW+hLYNiPoURGAMKx5VXvtWf6sO85gHqu8EQddg0KiUXxeK5b0vcg8gjj7Lrq0iGcFYp5X3/AB2wamoiH6ecbgOJwZlY5t912oc2cO9PSWZkL+nbJg/dbJ0uAVfcIMAQCuO/u7bHBkaKt6x9qaizCkcqFYCBPrbBRgQCOdYnCRp9M+FSAR2t9xKyYCqpzdyntDEtTWkuwRmTUpher9h7L2YuqHdYrNeLmVNk+Vu+3OzrjUvszNmWkYntLUziurc32F97nSFVvl0BOSVDQL8EcBFJk5WJJ8awQo98sxry2sM5uk0axrCtj2d3mWPHNhygfRUvWZMJJY4lL85t19VJbcvUdlhtKWEd9qg2lp1tim/0kGA6xkdwsaTSd1ki30aL63guKztJi9ozy2NHos9cev7+dftB2tkO7WbsEh/eUCnmVRMZWSSB8+uLb7aY77rNPvf2VdvD8hGWlbZQTHV7fGbQF7GhOZ/8bQeJDH/rQOVQEHXOo7VQ2LtIYng0C8Y5XItXvm4rIC4FQlt0mwWwltTbMAyAk1x9fcIHv5MvR5Azp0IVCi8Smo6y0Y38/nn22HBEIGDuHXohDqZK4320MWonVZwFuSIHjoFe8h4GpGBjCe+v9RXgHPhAA3ptPunpGo8imWVocdhmC0Zg9iP0f5gcMKFzN8iMcSrI2rCDU92CGOJkH4fhyyTkOXiwSxo0VL+QltNDgQYIbE0vxkCdMFQ5z8VmSTYHWCuzaRP6IjhOGdthhBzvquGPspJOf55u6rJUZRqesn76s7+nXKClONoKVqqN4JcT8+3F8T8Tp+k9NUJiNh+O31QGhfrnyTTmh1PSqo8ykLAkyMU4tXrRONSDHSr6+sTHFppRHVA9i6ayEoFr1h/MNWyjcvKxtjr0s1m17CDezykOWlUCgsy6GUFEdFyQ/R6ST92Vydq/q/cLSkF1ULdhDCeEwKeETr1i8V4Lo0AVWyFatonwkaglLVmWOPF2zgYeeFh/HrFTPWzY5bMW1D9vQioetLRe3TEeXFRo55Uf8k2pTaRg2Vph4tw3Hptndj62xW+97xOZtt8Cm9ErzUXVVpUUUkxm78cmKffFXt9uqsr5Tfvbdeba1EUB1AhekwD/mokoNHUbOsTYBz38uJN70pjedAyHRckebOEDgz5VAlBHqE3WWFhzmg3FHZYv+8rLL7CcXXmQXXXyJ/fYPv7ebb77R7r3vXt9K7IEHH7J+ESC75aIhcEJxQfe0vLSAIe4gYFw04khIgOoUvd0YRAIgyv/Ea/h2feBdEASKXWnxTNq+QEh4wd7nQwSmCwIJMoQBQoMJQ2xRXsyrLBJ2rD5kLwR2Il67eoW3uilVKguNAsrIW8AZwrM1L/5ejvT5gyFCAN3zUvfNRxFfm1psljwHIRUJBD6KyhoBZo9rfgrH5qO77LKznfrSl9hjS5+whx56yJYvW+Z7A4S1/Oa7QSGI2Q6ezsXR0YJrjw6hEBuksf7Ts0H4fiK0fh/hn+FPRhDiEkZVqe1t1bLtrkb1De3TbJfRkux1NRgxmWL1sk1VncxJ1ux56W47vp62HUaGrEutawZVnKKD03pKjJe1UrzD7pd6f0GyZOdZ3m6UtBiM56wvl1N8MrvSVVs7K2FT911oKeGXTtVyJuXnm85bVrfBe54U3vUsJo4rjWnxkrVX1tro04+ZFYatp7vXYtlOK0uIMCyaxTqIsXJU39RitipfsRvuvNdWDOZt7jbzLNuWsof7zD74rSvtoaG05VPdvoX9wtkzbcc5HdJ6KhIcEurgHFtkAji9TKiPPxdiPT09DbQD7PffSJWfP3++E8+zaQhjwsBBraoIx0cLxC4sDPr2d75rN9x0s42IkFatWm1sOz5j2hRv3Z5++mlv3YbVMkF99M7T8vnQIs+K0W1h+XG6Mfnw6bCKXR84PTqxuF6xPnFFSHGCUkBchKzo2f2arWhk+wP0ZypRF0oIATchmi0meQAnxMMEItcCpP7TKejalPLN3AE0HHAJJGMsRGqoBc5bZ1entbd3egcpayfG+x5C/nxURUBpSJdThPVCD6F8hKFlQBtDe2GtAXliizPygBCkP4EOSoY8GSWYCJSZRUs77bSz7b3P3nb0SSfYbXffZX/8/e/s6ccfs7oEcmd7zk2gNevWiIBjEtIl6+mZZmvW9HlfRQQRXlthTFFsAQ8xVgzyznVDaA1HvFF5+SbEKw02WbEd8mavTLTbK6zTstV+y4oRMcHFLz7sWNRnzM2gTyQt/6z8wUZdjEi/QUmBn8i227WitWul9TwkJuvLZGxU2kdD5ogozTJlabgyXdfulLLp7z1R4kI4ldZRlWCsKcTcOwZtzXevsSnDadUj08oT0gBEL8pluq3T+qX2lzIzJUxOsPZt97Z1salqIOOWbKfORyybaVMjGLe4hEV3vGYzkqvtfW88xW67/3H74e8fs3XWK+Jpt06ZQIfMLNtX33GyLUxL0EsQlCVUlHWTIvI3g4QI+hwqgEp+1ateZdOmTQutCRXTDOSV6UUO6jPEUhSTLnt6hd10y61+7Paqtet8VmCpXLWrr/mNrV691gk+K7WMlgeVlI09ffWhWkufOhxRgRz2O3++Ik/Ejot604MKH/LhuzLpITyHb3xnaDwUFRfxh66EbcYbOT5xP73XFVJBCLCBCCaKn41Aa5pg6nDG9x1kdSFCgA5B1hDkVY4Sm4qIgbiy3dhgf5+YfcQnJCFYXLh43tUmqOWiD6QivNCZR4cjOPQWWRnBebYcv8qX8kldRPcelRxLkTkoxOcLSJOjkzUSaMEkEK7lD24READfIWSjvoPu7i6bMX2q8lP2vodbb73JVi1f5gxEhyJzEJjdycQuX9AmFTshHOSleZBn8oMwi/pZWkGv/L0SH/Pw6e6qZ8wN5ozwDoVXIjGEVenoTONgYfrXmEuRUTnrhaJ33NbFhCPM7UvkrEN5OFJq/ili1kV0DiaVn6qaXupZgpddkNoqddnZ0uoUV0nRp6XUJGVvj6gsS6ZOsSsyafvl4IBdIzw+konZgOJib4Sg2ZIb/lTX+r7enbaOA7e3gjSTikwM/OL66e6TaXvbEmsrxC0V1/eim3Q6CyV5eVIKVy0O2bZT2+xdr3mh1UdlLjJErsqopLpUh0qI2b3ibA5KHqgm7Lq7H7V7nlKDUpepQAOpd2WVe2i0aFNVZ7sv6DVWClEHbFjDiERIr0nDOJU/1LgywJ2XZ/Mh9u53v1u0WfOz8d/+9rd7SxMqNkTHbyBQEbEqlNl/a9b12cU/+5ndePMtvtYepmEPQNTYXK7dhwYHfdedwAgQlO8eDKL1/cQWJmKAZ4bQurQyCqhwwN+fgg/RIkBgELe3hSCfpUhAf08r37S9pe7DKOQTbYSKJQ5aXdeSRPiMBDA9mpaf9DmivOyjBOx1KObzvIS4A7YCRMWL8o0jPwzxEjeVTqsLAxI2MBkCF9U8EhTCmS6hI1HELoLmnISwcSvxqT5Ud7T+5IOjyfsH+5v50YeiEQQvt0Q3pbfbttlmgYSGzDMRFSMmmDTMiGTNAmrpyDDDoHSYiiGhM/mhKZAm6aE9Iaw3AOUHUnUhQKGVH7Q/hlRZZBbyJMHELiRMN5aQTIpR3RBJqXFAKFTKPjuQjUc4y6MohqmIodsUdp/8sJ3VlbNjakWbWaobK0biFRobCfFE2W36JD2GSqeQ1PdM2hpVuFynPSDhcaXK9wfV19q6ypJLitFBj4RlQ2kz1Ed5hSSYjc2CY/Pbreu9J9i6tBqBnBCh/OXyKZv9SMme+MZVNnVYUkImBMIOoY/Zm5IAY0etnilT7R3veIed9brX23Cyw755xe32s5sfs2WN6ZaPt1ujXFKdVWUKSYVRGcEx9ECHLRgpNxCebBeQt+0Sa+w7//4SWzylZm0JGkcK7gOSjm8ayLh74gD2Y9BFjsvmQkxE6TFR2c4YzRaMyS4eQC4wIpKdzSer9rNf/NIuu+JKG4YphAiYxVVq/dHKso4ARIWdbwORB8IOzBMxK+BRt4ATzgS/CEI+QjyKwgseNICQzzD9NjA84D3jVLoQThgY2GczivD4DgZjZIN3PsIgIqRiONKctQbku1ZRBSm8b6lGXwvHlSsfbiLp6mk2mZfCBMJfHzzf/h+uhM9lc2Ju9qRkGDYc7e6akPIB/gFafvotmNTElmikxXAsdYUg815/xUWKCK+enl4bku3sQkZ+tHZR5yWhujrbXSBQ7qHhQQnxtLWhVahs7MU4MjTi+VDC7jhqng7hrEwNRoTIC2XBkc9WoO7BHylFQg3TkAaEVZuYfRS2XFPjoOiZNSiR635J8iDhJGyKSZSeBAVaAj301OWUUtVeK3v91FzG5pQ4JFZqs5LAnKiJoWEOZ2z9geCy8jYkelwpIX+DhM8vRgbsKfHvsHBUSskUSiofMJLST+o79kfwzm2qUJE3xHjxOW3W8d7jrb9NuMk2BUIhbbOWlG2pBELPgISxWnvong1v4Q1oYs6cubbHXnvZ57/wRV9fw2asw8rnvU8M22d+dK3dOZCzPutSOoqvOuDTrisyESpoYxRM8WCaOF7qBZtpA/ayA+fbe0/f36bKDM26JsC0afLqxVU5+Awq4J2eFDdP69fQpkHiox/96DlOYBCtgHsqO6rw8UhDEtjYv776Glu6bJkLDWbmQcC0mAMDAyLusocjPNpAIG5l0AsyHp/zSEjSYcP0nhk8f1IpfZdkISL6BnUqmqwEoyA0iJFZgAzJVaWtsHEpNj0tNUzk6SocQqIIU4ihyrLNOZmIfQWGpGKOinnKEgY+K9CxL0LUPWUbEwaOn6hMLQXTbfON/xKeFt93RFY6mCKUA1OA3ZvYdou9D+gkZOWjl0PpIKQIT0qhA1cEJBe0nwCUjXpE9QYCg8jpHwHiQlv3TK/OKW6WVDNVGjc6MurC0nHr9BDzzWQLwh2aX9SHwPuNCYSAbDm+1x9lou8IE5TvmWbdPzCoxi3UWU4M3ijXbcHcBZbj0JqOdhtFWNcaNqKyZmRr0wYmhaeDxR9nZDptO+WFso1kzDoCOdlIqmH5FNOXaSklnMUUQ9m43dFety9KdT8/VbSH29LWL+FUSksYSBphTmD7M52YUT9vYeXG/shiW9zSB29nBQmDKgsihJOk7P72oYYN3/6YtZVgYKYVh36z3t4pNmv2bD8I5hOf+KTfU3cwfJu0mO2npO2IfXeRVlSzFSue9v41x6FMshLCTGE5EtE3JQKDumdaNtrDkidX2L6LF9ucjoSJ2/Qe4Ueo4FwwgHflxaWliyeVw1+MwwZ1thFokve4IKjSQdJCZK3gDKAw7JnAPcTMxCKGEBkqhCBRD4kDm5wrWfawas2IN0TdRLz+nIj4babpYSb8bRRAljuKL8FDx48qhnKQD4bOmPzDWgDyyZh9T2+Pz+5DQwHQHGj5V69abevkOKGoJNV4pSrs6eVPSUCMGnvuK/NeOVQuQ4sArbZvMeZCL/Q9hDIgoLyagkNguaMfAEYjz6jdrHJUHMoreMLEYlfnQQkgjiBbJ7NsQAIJVd2ZkQonYQFESEcWeEWz8eFCXRHGUT0CngvlibAQJ5oIm8esWr3aD3Ed7Ou3gXUDtm7NOh8lQaOg/iCLkbwEBf0RHi+7PYsUGceXI9xYExU58qe0yZurvsrTm9/8Jj9y/ZZbbrELL7zIZz6i9UC40Mceu+1ul/3qMvvTLbfaVVf+2hYuXOT9UDEJxVJF+KlnbBvR94vSPbYt+wuIk3OVrHUVMjIZ2O5fglRad7sc/QajaV3Bh2z9oX6VU1XXL1O2WJKaLvscmz1MB5ZmwEpJyqIqCjXlVBTqUOWJV0JZKVoIwI34IylWUxnYiEevfbbtokWLbJ4Ewd57723nf/98n+cRTT8HD/RJQf/zc2V77/N2tHP/5Sg7Yrt2K9YkoFJTxN85FBCnMWXAHcKNuhyqJGxNYoZ98YKrbWVetK64nOndkbGQPagSh7YUfMK7Voh47NlgTCAAVD5q7EQbEX93yiBESMQwA8Nca0Rckf3jHXOS6BE4MYqZggoJ4wR73Vs1ucBE42GD86BCPYTmL/w9oCyMhYP5Q2+98qP4uWercmbswUg8s6dARzvHpuXUIjK5pdFsDYd9D4E1q1eJIdb5VOJB2d4cVLpKwqAqxkmpPHWpsX7OARWlzKAQEwdxYyYhaCATQLlq3hEkuvcCjDnKzjV6zXMYNqT1xjxgdEfkqnuEB0wcwkOcaBKBmUiLOgotQqgbF0wKE/VPeF3pO76N9gigQzdsGMvmrBzZPuwdiDB4OpXxDuC6CJ8wbjLxlb5lB+6gXTRLyzVyTeAdaaE5uWkm4XTZpZe5sMPUWLz7Ynv961/vRO67Xiv8a157llrUebqN27333GdPLn3SGYiElZxlSqN2aEeX7a0WtL2cl7DBzFBea2l2HvD8sQQ6VVVDxKIhLHAxfaKesu07Z8v+Tllm0Kwt3q0qlLkjDobRM9WYpcSMqaaZgSjQo1/ZCcxBJg13ML0y68+khwmAzZOT1rPtwoW24047+fVf3/Rm+/jHP+67YWPmoBGhwSFH6FDEJEnJfOlo5G3xgpztsnCOZdo6vKxED62Ng+pPNOFppztU1na7f2XBbnpkjQ0owkYC84qRB0mIWFF1xihcSCevenvisSfsofsf8CHlRx55xK8PPPCA3XfffcZ2ifjRyNCABJoch7Ft2CdC5AlSAoz3IXz/Bz+0X152ua2QZkCLSesEAToTN2UM0YZ6DwSrf4eIqMKVljO0aITHK8rN+DfjPdtBfQ4BGJqrSn2kUL6BqIiQ9x3SXli6GxU0LdWUFYfY/6jczBSEAZHgMAY7EnvPvIURgpC7Zj74iTIkQCATK21kK8CgQFS2CKUbTtMd/87VybEyrh/On1rSdSBs83Yc5MO/3iEEEBLtne3eP0BoNTIehjQoM6IkkYqLmLOWFrMwXMqoB/szIlvAIZoBC7MgRu8gFFC/2MODqPzKNzmL8hKVlTDkPDCQp+om5dve/g77j//4DxfObF33/BeeIqJ8yHbbYWe7/Oe/ksbWZWslwE97+cvspj/dbG2qOzo5mbZ7oOJ4Q6rbDpOml6tJS/LywPgpK6arPnMvjhIK1ymvZcwRlbJWTdhArtOuVshvFIbs/lTOyhlpLVaSsAhzG8gr603oSGyo1WfOhedfvwjkbLv8//NYG5wlwZPWN/QTiAenDqQsfvGdtmtjhs2cPtcOOeQQO/n5z7e5c+c5zY0JTqdraRCKD5eoFGSi1Gw41mE3LCvZ2eddbveNdFo91SbEFyyDuStcVmMpFwYqhf4kFdnYVYKrs7HW9uoatc+944W2S29Z+lHF0g01vnTMNpJWrKfVYCTt5j/eYGe94mUS6jKRhRfyg1BmBAptODQkMWlsF9phhx2mnGFCohUGCDW+qaAME9mcOXPGlhuDBNQhWkvmI4DUcQbxT1wTgJGDuuxyOPzxTj9hkk70DQQciAs/J+SmMCBCtA20EGz7of4BV+vTUnOnyoab2tNrGd0zDEmPOXsL9K2RVF231kaGBmzUv+mz1SuW25pVK3z/wSpIgs3Jh8oSTIBwH+UHCPls5mnC38ZhQ3/Kgj/a1Fi8z/j9poHnR3nFBg11EQ479WXRJOFokw4gHJL/6MzGgnBTRGOQQBwYGbE1Mh/Yjp6NadlgVhJXketj3VK/TugIMcUTstyMfCwRLoiB5p/CQohsy/fUU0/5NxDlma8807WR/zj7/ZbrEEOIES786UV2z333WFbEGpd21qF8LizX7Hm5pO03UrAsc/iJXlmKJaqKuyLTgc1vaLElpBNipLhYuV6xSqOk+7y+GbID0zE7KFWT4OgX34xIEGBOCBdUN3WsWNlCoajy+aE9ek8nLHiqF9EAJWQjZtE9ZWK+7dHHHWfnfOQjdu4Xv+SaAR2J4Ae8R/SL2CTPMBhLtdMJJldlbY2i+8av77XHh1MSa1XfgrBTZUJ6M9Lh3+lD7hlNUCb0oEZPmtAD6+r2k9/fa4OWsaJ3LEo4MgtT4elaRZmlcUPwhkVqRe8748rWfvArpikT55YvX+6NKfluhQ3OZZgIFCqACE85hTiWPrnMjzuH5iJGd2bxe0qjfz1vDCJvhfS/KCzOVWB5gJCA2CBleReZBHQQQvjsKUgPOScbZWXmOJ3Kn5aSxUPDKviIhFZZrR3ThzEROKeQDkM/20/pJNSC02r6piNkSulxxVGlJB6VB0cVezXrf2MQMbmDBxOCoo9x8kOuBe2AQPh5Ss8NzxAOP2KnhQafqKn07tNfgCmAw5/0glBF2AmXEgYFaXvRNGXMiVCXch5X+DakwISfrOMWB4SyhnfRlV/ywg35ocXyUQs9H3vMsSK+lM2bv8D6+wbsNa95rSVVb2ukHbz/A/9lK1ZIaCgfbUq/Xfk4SQL9tEbWZhVRn4lYeREDVMQoVb1LygQYzehZwpVlz8PSQPrbUtIM2P8gbvmyTJV4xgayCbtXmsGgBEasQWMhXCg+BAHCJJgAcbXQMpXlyQYmrKrsyqWteOA8q0xhAlJFzCthFU/btLYp9rnXvc/2m7eLa58IWpgK+gR4jgAc0dLH60UxSsMGE1n74W+X2aW3LLHRGKaF9B1lhqHZmLSYWiKD0eM1JrGuCBRAmhEGEjRay02xFStX2347b28zuxLSEBKhe1HCKi5TiQh7untsh4Xb2lFHHmnPe/4pdtRRR9nxxx/vEw/vvfdezxf9aP/zP/9jM2bM8Hy3dhFslskAMwyrBfn8uV/0eQhOG3zu/yIhFSAM8YUWMLrnrROjB99och4+qDPch+8RNBAqsxqZ1MPx29iYRMGR4wgF/CFq5uRjFiA0vCVWINYPjEoo+GlGEh7OCBII4ZBTVTzIUAV6a0Y1KM2I7cgnd06MDuPlnFgC/8bzPf4tnT6w1USgbEEgUD7C4dd82YSN4wgGXR8IR78CApJ3brYp7g6ZDbQE3uKprD40qoJQBeCG+6oYC7GI0KKzFIL1hVleX3KMzXPlO33IWDuED55biX48r0H4+aMKhECg1aUPghGTX/ziF7bXPvt6HglCHYyqvj752U/ZV77yZctLg5tG/Q7nbabs8zdMnWH7sRuWiDybb1g5FbPBpASY8JqQ9lBUOYaVjaFYWsyetoF4w5IFxaxWb1gt7opGwQaqDRutJW2l0hzJSnWWJkFjDBNVVSbfNBiulNBPldRa18VgXTlLdaZs/tQue+y1O9vaOQrNJKii7PRG2ualZtjFL3yf7VqdpoYodFCzWC3SDsahiReEgXAz1Gi3x4bMPvC5b9mS/oatbnRZv3VJfWjTt8qL21oSLoRXHVQ5+Ej5TDWKyteIRFraCvUO65Kp9NJFafvAGw+yGaq2DuFEaq5MH/GBHOZGtTjsk8yKwhP5Qjt40YteZLfffrvz2Jlnnimcf8XzGx27EMEzCoQNQAlBeCtWr7Z3v/ffbcljjxuLl2htKXtgE4g9CAX9OHH5pBR962TQxJczQ7gVkiEavVU2fJQCgtQ9QsB78puIZpKLE6LuHfGqBFp7P/OQlk6qL9OH6dBi2BF1lYonSfKNMODev1X8Xmw5/MiLeCfkCf8J4N9EcSm/zZBNID/NW4GXTa+9/6DFHwiPMGmzDIKAt/XT9JT0P1Y1XBR+QnRNbw8Y3nvaDevqkr0vQQiDI1AxUcbLxVWp6l0oPUk18eBhSEfh8ZVnFD/vmbQ2ODhEUk3wr5rXYAoG0HMzPwgEvE866UT75nnfslQmI9oIETzw4AP2vJNO8k7gbFp0opYyI8bI6pvFmax1qz5HJAAaImwGPdnJm3aY3NF1TSvPEGJJrSMzDtMyB+gjKEsLHknUxPBxtbNp1ZnaaWWjijAhbwrjtSi8lEVHDPXOmjLNeto6LJXL2K57LLaDDjnQvj9rid1WXiKTomypmFT0REosnLVLn/ffdnB6oaKhZQVfodxRnQaIcEGOmUglwSXefXLVgPXlJbAGK7a6ELO+YZls6/qsP1+xVcMlabND0m7q1l9sWL6iOJwfVJZEm5XT3dZWGbVZhWX2X29+qR23Z6dNUfw50mIykwpFuXwXJ4EMJO8Xgvk//OEP+4gV+6Zedtlltu222zo/RX0KEWyaQPAQ9Og37P4HHrR3//v7RHCyUySNY6gJSElcFJUKASFARkggvsNOp2yh9VcYZcbtXRECpywzBEf4/PCQty6YArRIRBnZ3Ki0Pn4vM6BeKviEGjoHEQocz0Y+nAjJgq7E47jiT++cYPmXgJgIgZhx0T0Q4mqFJin5/foEAAM077iR2+Bbx88EgbCBgFEIBB/QxGfzsw3ia4UoPkw3hoXBC/j1acPE14wrAs+dOB6mjyBgReHGCxJwqluvk/YO7zsKaQVcOzSfG5E6hXovgNiwX7PZNttnn33sJz/5ifVOmyLhKzVZ2sF9UmFPkVrrJ0yJcD1Pyq+rsBLqdB8SoyhH34S8kkfuEeARYAZ4QPmFyVHhOdJkwAFxEyxiAhoJtEaEHJsMo0bvtttu9vyTT7G999rH4t2ddtaf/teuXXWj5SVIapIysUzK2kTXV53wITs0tb2SQCAEGMPFBCBbOBoSRCb5JjdV3XBFurntr0Cwcf9QzdYM5m213LqRsgRFzVYOjNqKtYN6N2KVIrM5i7bNtLqd866X2TTptm0SGEmmcYMgyYVqjAV5VfFm3EcWnve853m/AeX96le/ai95yUucNuBN8OD4bsJmCQQwft0N19sH/+fDsjsltVWR2A2Mt/owoFph78xyfQCiD/YV5cZeB2cgzgleVzJC1GgGQFWYURDXDFB93UxA1RdxDElQsLcABOZDJiIoeqO5Jw4XPKiouvc05OlF4x5PAc8gwP35qBWcmIN/JBBCJePkM4YmXeUVogw3EFvzXz/+tFFoZqcZbwTEG8Ud4JmI69kg+oZ8olUxuQl8+WxBaQkTo/RcbkQgUHb30gfkSqLYHcOhqP4s4KIgET7G0uVvLK5wQ38DrS8a3Pnnn2+nnPL8wBBiMDp9mcz2jre/wy5hj0yFRc1lxSjCx+d9kAPy0cxLyF/IM89cKQepUa/cIBCgHRoPtEXoAiGAphTMIbOZM2f6GRowBS3maaedZkfK5sbOzqazTrODiu8Nd3zerl5xvY3U6WCUjZ5OWpviuOqEc+wwBAIdf014xjoLaNJFtOcEQL6VP2VeWfJnHNu+J9GByKOQBCfUY6q7mEwdwupTijgst0bBaoV+WzQ75x2S6bq0cmvztJDFaE6sAK0VKvba177WFy2iHSAIvvnNb3o9ghNwxrU17wFDmwiUh9V72JMACEaVh8GxZSG+ZDLMY/A0xGRhvkAQGEFoBNOD0rl0ImP4o+ITh75nKihj4iBq1aoVtnTpE7Zi2VO2dtVK61u7yvrlhgcHXB1iaIs4aggnYYTCeQE9fXxCRYy5kHEoZ33Hd3zgtxGZAc0abT5H76J0wv3Y2+YV4G59R7hw/+wQpbg+PPd3DkqkKlwynBjS5LuNxzgRohQIDcMHxzZ3Ze+RJl76cKjPCAgz1hmp+gyO+5Am2tCJJ55gxx57rH/36JIldvGFF3l8bDT7/rPP9rkI9PMgIGBm8owWwE7JrhkoHlrX1lKw/iDujBDCQ38IA8of8sfCsjBJDppDa6ITjf1DEQK0ml/4whfs+9//vr3yla+0uXPnehhvLYUI75wVbYtoSMHTUSE9rmiIcpNBQRn5wlxJ6J6Jj3BQm5JqU5bZdACNupLosnKsQyZPu8yTNvmlfCcrwnUrKz2phs2VxbW422yf2R3WI0MkK0HC7k+ejLJYgbV0Tz4vuOAC+/Wvf+3awXbbbefDv8zQDQKSyWobsv9zC4So3KoAKoVeYxYBJbDvJX0ZloEpEQapVMYrgfswiYbKUYXUkLC6SiT61YWEBIQYmmcWSCEcIEj8IC4k2nIJgcH+Aetft84G+sPQYVlEgyrJMleyRni+85ZABOEEKoKAIKlICsAsRlQoHJ2JiAUcLVXkQq3xzzdNIIGmwze8gwD1q59w1WvCOMAYzdvmu1aHZ7gGcCZq3q8H+Le8cKZu+e7ZgLCUHXyGmZSU7c8ApU/+Qp5pRUIrG5hmnGxCPskvZQnlie5gLtzZDDGy14CEAETKwNayJ5c5DcybP99OVwsdTAs6fjELRRf6nuk2zBVg0hAM460/f6JF0IELZfVcug+zC2HkChOL1ILPmTPPtlu4SEJgW9t+++19AR+mywc+8AGfQ4CpQB7HmEP4q8BVig6hAOMw18brQIULjQpuMyDKrNcj8YDcJs3JRW2SA0G4NP3QQXDo3FxTyk9O2GHkgaXq9AeLEf0jtC+hSVC1B++/zz70oQ85HzFD9GwJXkwitB8a0mCOe+WtB88uEFrDKzEQXBGzsZFlNicbXwLABUIkAECqSsLEDmbdhdl3EAUfg8wwTh45NAMmB7lUVkXWfIlwSszfZ6tWrvDhwrVrVvsSY+YUMHuQuScMwbBSEentrYIip+K8VXJkixxFJcTv1OKuqQrzDse9AIYZQwyf8sejArsvH5F9r8xwDapneOH+ghAFz1wCeU6EZtBxeIZwHnDsRWghPd9cWlwrjPkpHJ8zlMXCrYip/T1xRPHoZ+w65iJP/rkJ+CE+nhnKpJ6B9b4RuOqpP9R9su6an6j1pWL2HXfc0TWF1atX2U9lHjBt+rJLL/W42ZL+la94pS1UC+bH62G6RRyiOFy9Vt2FrBHzeBroB2wZRx2gFWCaQEv0dWy/aHufUkznGSbBJz/5Sfvud7/r2gCH5SJ8vPFqMkYkELzcFFhAXMxxQSsiRbQXWl46Ij0DLRDhYQNQOFpunH+D87JxzzcIHzq82bWhIUaXZqO4WM7NDtCMGggBiqDpxmbPoQFmLCZtgolJVT2FHKjRHhmy/zv3XJ8CD3DmChoRZQ0NxfgwaUS/EQQsbAKQGJE4M8ihHXDcV0LSCcGQlBnBBpBxCQEEA8jEuWBo3lOR4I1MYT7QYnAikR9cqmeYfsVTy7ynlf0GOKCkKsIOOPAPlRHIQi6UPuCGCtWdl60Zv3cchsQUNvomSOMIue5H3B6Jfzr+o/+mNzH7gxNFM3zrd+s/e+hNgmcLN/6OvDTZk/K0OPeLIPLjqoyAW/pgxgjV3+nSvPe76Np0/kc4fw55iAiGX5gOvMI8Y52hzYwikGEwn2SmZ8IyYYdlwNisMOu5537RJ8QwbfoLn/+8HzBMa7Vw4UJ773vf63RDnwOtsM+LICK0AtLT7TjTUQ/BBuZ74ubYu9mzZ9sOO+woTWAHF0Kvf/2/2HnnnWf/+R//aUceeZR3HsIMEfNHZWt9jjp8oZOUmlvozF0I4HlDg3EGd68QPoprIpBjMDXuYH2nPD3J+WfNUNJenTb9mXeB19isNSzPljCOXIJD6DjBQQJNaTNqCT7qlZL99MIL7NJf/dJxwyTCT3ziE9bb2+vv4UM3tXUlz/i1wjMLBPI0AagYEJIQkzsLwvAIBkl5XDorp6tvKqLWPDgWd9A3gB+qmZChmmY5LFcIzM0GaQpMHmIdQaWYt8G+tV44tqOmcsCbtxROJSDKMelAhTkh6x2+rPGnbyP4CQnySyk8ZIVQYIci5psjoPygDC/shgV2xmh6P1ulh9xtGQCOAK90CeeAr00EDxrCgxVwTJkDI3INeziEBVABIjONuvVzLRWUTmGWYJ/56jNtjpiU9RoPPHC/T5dl9IMVsizk+ubXv26smQA4V3SHHXfw+JlvApMStxM59ej5gTEk7BQfE9Tw6+zqGjMJZs6cbSeccKJ9/OOfkCD4tr3tbW+zBQsYXgvEvzHXCk4vyn9Eb5ihoTHxl/6el0UEgrz4PnwTTDR/PwGchlwErA/EGpxTZbjG1IKL8TmZikVa9IqBHRyzGXDcY0KhEUSiA8CKk1hw8/q8b5xnw4Nhmfy73/1u7z+gMaeRoJ8GAM/kORKGETzzKMMEXwpWrtbtG9/6rl3zu99bvhymjjLTCtUc9ZBefu8zqJabfgog57Y72ZXUh1B9roB3AlIImDPuGcSO7GxL2eAAu/4GUyIQdMhMhHy/F5sTJ4h2JwQy7q4AY2HwI3/M1Xc1SQSNdK8yGqJ7EOpEIecxuW5HSUPMxMJ7BIcnwrP/hPifGfR1M/xzA3E9V3ybDp5nOVRbWgX2eIxaAUdLsyhReaOWDgiMJ2iGgfkgFx+90T3vEe45tfjM+QDPEBRpIegRAowY1apSfcVM73rXu1xdZQHV5Zdf7iduIRyiVnjq1Gn2kY98xLp7up1gvy4Bcf0NNwRC1XvqnvjRBsh7VI5sW7t1d3f7uhV27KaT8JhjjvGOy/nz5nkfFnkjvKv7Si/ktaWwGwHCkA5IYTu2/3ryB/a9P11kxTgabdqqaceGfX/ft9jL5x7mp0kBTkMTYNyPPEe10mQ+R7KgGSTQm8K5diDAn4qBnpuBCBGuwQH4uPNMBx78/vk/kFb2bsc55T3ggAN89KSqRhfgCi8cd9xx9uY3v9nrCT6LYLMEQkE2/le+8U277vqbbJTDO1iKKeZvwPCqPEeo7ikYmcMU4EwC7y9QfJFAQFIxh8A7//QN4fBjCnJxdECtxqhnksx7nM2iu3YhROHDsI0TtSIG+e5CVp2YKLQPW6aklcjPVxCKUJjzMFoYVWsWpuzyUfgeotODpxcEgjz59/cO4MSfN46yVhgniOcC4nru+DYVSBd1HUZiIxQKgKAlN17T5N8v+gWXLdkcz4kwoBuUf4qKOeaTy9TSMuKAoKGliVRP0oN2CQ/u6VxGoAPe56A4mJnIprpBU0RA0+EZdvvmHqGCBorZQeMQOszUyCgMS6I5Wq69o8NmzZnt9cR5nieccLy95tWvsZ133tnTpXMbE5UilUWr1Dn4gIa8H+s5wGlNeeUbJj1+eOVF9s3rz7eiilCppayaCvTwzd3faGdue5QLhPCNAgv4LggwwjXTg8n9Pc9NgdAKeMsRIsQSACoPMUS+rW8Bva0TH0IEZg9jmF/40tfsAx/6mG/3l06GOSnUBYxPPuk7Ab8MszLCwnvqJIJnFghAyxuYhA7Fb3/vfLvy6mssX6IDSEwkjSAIAAV25AT1COnsQgHNQe984xIxI4xPhyDDhHRSsfqQYuXFpCxOWrdutTQIvRcxRCojxEKBANRVltZC0BAiqj9hGWbD3KDl6O3t8byzkjEu4qFvQpHJls1J0le8pUPlHGZmo+IAkc0uFm9N+FYixysX8BZL/lElg5Zw50V2Itk4POOLFiC2vx5QT2SIlMkv4+39AwN+30q4HszDN6H5DQLCw/ECD9Udb4JAkCorXPf29PgZm+CdqPAHRxF+oAWYnHhcWDT9ubJ/AIwfvEKeCOtCQHUMjUCgwZQMp1N1qU4ZpYB4d9xpZ5+ff+BBB3mHIYIipOVJeLzEGcrb6heuDvjL0StfqJesLIZfXl5r5XTMhqrDVo5VbSBWswuWXme/vu1aEzVaNS4BBd8IDy+bc6DtN3tH5V7lLlRVXjU+w3U7cccDbNe2WcbJ1I1Ars3WO0o4uk6ApndTP5gQulkIh9Z7AZXlfvpS+OL72++8x77z3fNdM+Scygj3rUB9HXzwwd7BGg1DRrBZAoHZiD+64EL7+a8udW3BmYkwioJoIIoI80EgjNtVDPdR2QgDGJV+A7LBLkUVMTLHXrG1OcMkrNDiOyQb5YHApk+fZl/60pd9V+ivf+1rdv4PfuhEg0pIq4VZMHVKjx9NxsgGrRqmyvBg3t75jnfa4UccZnfffZd9/BMf8zwQJ2pV3neuURwqCKMnaBGotaSLIx+BuJR/GICYJah4F8oV3v8jIKC2pZIECDta5Qjv9KjT28yz+1GuJqkBLkAE6/m1htP9+JsAMCmr6pguTtigJbAoh49CaPz9VlF5GiEZqQrSDPQC2ohUVe4RAsSBH/iEUNFEEPDc77vvvt5Tvueee/r+nwDhWon5WaGZfisPcVtMVO2J0hr75M++YY/VZaqmSjbaGLHBnFmftF+nU6VRpsNP5qwKblm1LylpHHVlP1aIWbbRbnuk5tsnn/8mOyA1V421tNus8oYQbcHJ3xIc/8onuES4gptnokv40HcMa+K6NdxmCQTJG/vVpZfZjy68UGp3WS11sEsgGqJpjSp6HvcLLT2tP1oBTNmey9p/nX22LZg3V5kSISt+NAj6GG648Ub71rfOsyVLlkhYZPxwEexQppr+6dZb7SUvPS10kAjpSsSmSiuYIaGBYOF74uJ+YHDEvvjFL9lhhx5ijyx52E4//TRHXujLqNmohAIbwbJVVVzqJqoUK8Yef+Ixu+eeuz2sE6uEC4ij1UL1i3BI+Z4J8X8rCCjdeLXhS12RJ8J1dXd5xx0LwAC3zVs+Jax/RBH8lp+mB/+6nVg6tDWG9vr7+zyoa4VNHPg6FgGaIRDyQXz+ICei1S3E6/gUfrni8GMWIQIHf/oGXvCCF7hGMG/ePCdiIMJ5JFA2CZpZYNNj0mdHZikB8i/bukzZvnnvVfbt239tQ7Ehq8ULNpyLWyWpPIpGWC7NMm0OYwUZ2RrL62M2UpYqnmy3qfmcvW2vU+1fF59s0ypZhZUAkZxiK0aHTZRZfy5E+OAa3cP0E/HDu0j4Rs+ExUWwWVmlRWajDOxBj0T/USbWAxLSJUoMF5kUVDoZ4lh0JP0+++zt48VhBtkCv+69zz721re+1b7zne86UQAcjc6ijF/+4hf2la9+1QUH8VFA1Mkp06b56Ec4Aq6gV3W3WTEv2POOCQxlmTdpJsjomVYqJk3Cu2f1jm8hxq9//Rs+VPVf//V+t7fIL8KDdCi/CuP5+VsC6IzwOuZa3/EX0Lmhi8JwI0AYoFKrtP4y8h8DeYT4WhzeTb+NAfiIGJpowY3Xc9MvOKnNCut4C5+5MGqF0H+Q9Ikz0AJ0wNAhAuBTn/qUffvb3/apt/hTF8RLurjNhmYm4NFmM6ZmVZ4VjpCP2e47L7YEuyZnEjaai1kpJQ03IY0lHXdtgHMevD8EepCULCEpRT81NTqz0932vJ32s15sCuUxr+xFZR6/+dsBeHE8q7645wpex+siOPBGHw3wTHW7WZglws7ODu9JVgpN3w0jjnqro4xEQbiQD+zx0AGU9iFKgvzoRz/yQ0ToLf7jH//oaTGz6owzXuHvB4cGfQjlHe98h1166aVBRVIcxNktgmI34tWrV/tCJ5Z79g8Oej8BM97KQladilTi6wYHbFBhh9kzQdoBJ/b6lt8SHEhUb4WUHvmOkEbrSqvICIUX4B8KSt+z4CwbnltcEFq6Q10Vnr1DERNH9z5HQPnnHWEiCH4eqbzHX7TetwKanu+3QMUIiD8kOt5K8cxmI+Pnb+idko0O5oFg6QNA4GMaoAH+27/9m/34xz/2SUQIBXrHwXskBHARYVNXERNsEjSLwmWs3STb6ZQfvLpDco6duvthli0wvKeMMt4tx2I6P4KPvidptlIrvb+JpdPGJriFqh2//V42L9bhiwxZVk2Oml0Im8lhfx5EOIjwM14v4b7VRRCFhY9aYZOz65Hpn73kUAshvGCDhIiBiBiiZMcqSx6EpYWASPVBs1LppArymvFpVtKx99sXv/jFoKrrG3qQ6Uhki/Gf/vRi++nFP5X28BZLZVjWWrcjjzrSzv3iuT4l9qKLL7aLL/mpzJpf6f4ie4vCMS/CBZSyQv/A617/ervwogvt8iuusB9ICJ140vO8AtnAgxaJ040gVobLLpOJwnz3zo5OtyV9bruXLsQXFS8qt/sFL0GEk3G3IYyHaYWATn6i94pbGlaUhnz8Gt4GwLs1Hu5dKxN4/eAhN3br8cFQHsRBPnrmpT/4/Xia40C6aGg+O9V9FEARE4wkXRn0e/2qnnlmJWxGrXyHGpRIEKAVnHLKKfa///u/Mg+/ZWeddZZrCGgDaH3kO3KeryZE9xFRbxIQTA5hQBvpMgymlwdaQ68l7YwdD7X9p2xrbRymSg8+5qG0A3bzZr4KJ2WLOLysFDDRkFCL99iLdjvUprAiIZGSQAjx+yZICsacgda8/y0AHICLqL4inD0TRO+4QuutsNnyC4lNJOMqyngCDhR+QmZ4H1UeVxcMclQ6giIQJ8KGswpS3hHm3ynso48u0bu69x0ccMCBduBBB9rO0iT4Zp+997Hvfe97dsKJJ0qt3N6Fx8677GKLd9/dFm2/vfWo5WHD0FDomO2yy672n//5n7bHHnsq7C52/HHHO8PPnDnLd2TeZoHME7IuamFL9G0WLBjbHgvijsazA3AN9zCeVwbP0Wue/D4KF174XTMO0BT5+vfhwYF3AH5R3OG78W/Xg5Z3Hk7vqSMAwem2vX8k13wXNLnwjYNumymN/UUvQv5wIX5mB9LDH9W9++vq/UQS5jQLrD/gnpO95wuX22y70AUBE2Ve8YpXuABm5x60QhYXoc5CHwDxttLVM91vKpA3HIuLcOCAPRIYYZCP9Ujd3zM2zV600yGWHZT2WVI+YmJt0YJ3NXiS+hA1h3sJg2whYUfP28N2zsxSDBIi9DPoFeYFUoZRDDDx94KJOPtzYLMEAkmxQSfMGVoHGES44ec5QWHG8hpaEzo++JQNOHfZdRe3Fz/4gQ/6QgwIg40zfvnLX4WWTgFd1dUt+yPgTjjxBOuV8Fizdq296d/eZP/2lrfYE48/4cNXl/zsZ/aZz3zGe1z5HoZgXsLll19pr3zFq+wnP/6JHyrD7LbXvOY1du2119prz3qt0hz0tH73u9/Zqaee6pNr0Fy8M64pBCc6wC/hp/kc8hu9n1hRePNugm/zu+CC0G3a580QG4MoDcDvxx9d0wLPzEkgHjr7iEsphACbCOP5Un5UN1zR3IibeIPqidaXMtYXMJW4V1rd9ot2kBDY1jqkZR1+xJH28Y9/0tcU/Pu//7sfPEuDgCD4Swn5uYDYx1JooogcMw6A2ExJOsRHzQ6fv7sdNnuxdeeTFq+qIYGrlccajUEzAnpHsgo/o9xmz9/xYOtkabREAh2WBKETMgA3m4fnfzRslkCAsbLZXBAIVCClHyOU8YKPE8+4o+UYV3sDsUctGERx+GGH22c/+1mp+W91lZIhwle/+tW+iYYztb7BPAmmR8g249MQ0oMPPmj33Xe/3XHHHfbwIw97PwLHnq9Zt9arg3zz3WOPPS6B8wFpHY/6+nxGI1B9OWSDgEufWKpwoRMRgcS8ew7VQGD5whvFtXG65U0ov7IZyuhPAUKZmw9NIAT+rRDwMo6fIFDGv9+400/z29Z7MhA9Ux5s9+CHkAiCNfpmzOE5AaJ3rYBg9D4cMQlmmHcm+p/5ugVae5Y000lLh+CrzzzTpy1Tv4cccrBrgOAXQYD2Rfwu9P7GQsFBSbBnACWCsemFUgn0IM+2tM3MTbNX7f88m1HNWapMfphGLJzpNbLBfZTfjlLM9puyve3du73FGH+kc1qRet8BgVKMmrEz4ph02CogcNYmAhWHyYBqD0Ihig0I5pkqtRnEK70ZBCaF8Innvvvv8z4C1m7TirFUlXkCMCLfIID4lGgQDnRKPvb4Y/58+OGH23+9//32kY982I47/nhLyuy45dZbxuLnKzrXmF9AByHbs7EVGIzC6squzi6f/xCFh9DJE2oxzMOmHQw3MsV6LPMtQPGDIze4ZqgWXETMPQZ6CLjTfTNceB8Jg4hJ8IdVo7gnuo2D50XfwnjkPYrDV+zVAk43CxSeuFwgyyGcGc1htIi1CTNnzbTtd9zBpk6b6mtajjv+OPvCF8+173zvu/ZvEvILpCXQGU1HcijX+u5vDk10ocIz50QY9vWCyaoYV4b+SK1iwygEaun37N3O9t9uD0vXkqrzlH9T0xtRquIQfUhoT0+02wv2OcK6WYwsYUtPGJpBUg7hUYwF7c9X1m9F8IwCwUnNS4QL2KRzhX0Iujo7xKD6WC6qTCfAJgSf9f2QythYVIR/o3/sSxidKczXX3e9vffd77VXvepMqe1DEjrt9iHZl3RE+cnBUvlVD2KWoP5zXfLIo0oj+L34xS+xU045VfEl7PbbbrfLL73MOJeRU40xUJjRyMGtMjYslUz7NtWqWwfCcLBGuVJyYUBZ6ctAgHi5m4xA+s5Yfh13joJmoYOfCE4uMKGemw6ScgGohHkfwggjTQEQQgHgpxmhg+71iuxOdNFXrs428RrVVzDMEDASblVmd/K6iX+uej3RUUiuYA2HDY1a7ba0EsHR9jGJK6M6mjt/G5sybboP+26//SJ769veaj/84Q/sIx/9iB0sbYB1CulMOJvS0xR+wWUr3UT3f1MIhfcLpOiET3nBuzzZ05HuhJx+51invXTHQ627njUOd6HESWFB5OumRTbWboslNI6asatlESshClcSojRCd2vA29+lfH8lcLw8E4CvJtbGHAxDT7ybDF6ZhOE2hHZoQUDk78wgSuPKohnuwq4+IQxIo9W5/vob7NLLLvPUDjroYKmYh7bYqmJMfROG/8xOfeGLFCpuv/vt7/yosJ/+9BIfsmJ9/aqVq0JrpqwwhTOVlB2olpJjtcpFFl8pH3KkyxBaschikDDTK1JnWTgTjdv6Cb/6LkDAxbgLRBCgKQhw/tcSUn7jgkJ/+mjsWS4C0DceX3gmbPOr9f/G3o2H8SfhOvwhgusu3GBMNJ8Em0ooPQVvfhjSUw24FsQ8E96HtSbCnwQyy2/5AkHQLRNr4aLtbfqMWTZ1+gw79PAj7ZwPf9i+/H9f9uPbdt9jd58mDq2Q99ZEwnOAUOctHn8HQMix2iEIOznmoggdUGJWdZ9V895eS9shM3eyo7ffx3rY/dgbLtWVBCtHwucKKTti4b42qyKzorlZC+YHnbc8wFRuhiBiRLNbE2xWbiEYKhCTIVQ2hW6BJmE7cfPv13BPy+P3reEciWy8IWbXn/upUn7+s5/Jvq9aRkz4b296sw/5sAcf8ZSLJfdnFCAQnXmfA/MUWFJLx+Hzn3+Kz02ImNl7viVQWOyCmsuUW56DOs2Vo7lyepf3fgNa7d12W2z//V//5TvrYCb5mvvmYqFNAceNO7Id/hyDTX+u7kLwPx+aKHUYuyfWyAFq2SUMGTJmTUlINbxrZifcq07BFasWiYr+lCjfTB5ipICOQOYNcH3Vma+yL33pSz5SE+39H5Ur0gJwEbTeb6lATxFnPWRjGXvVbkfY9OGYtcVzMgGQGuz5kbKdO2bboYt2D1pjswEBtobyPRdslkCI6G181hgIGEcC72FqkOTSEoAoPFwEutc/K9aYOOStcYbDPVmSrDZIz3fddZfdeust/u1+++8nQpzv/qx+oxOLfoWR4SG7/g/XOUMv3G5be/vb3uYTW97//vfbueee63MMpk2f7kIBbQYBAFNw9iN5pG8AYvcKbVYkZxl84xtf94U7dHy94Q1v8EU0vgW8iMSH7vTt5kJr6SdChLPncvoJH7QC3uHH34d7kEuKTectGJpPMLWwiWnpx4JRN3LcIwzoHwhmWsLrhWHXbbbdxk9xRigwYQgt7FvnnWfvfMc7vK8HHMMcdBBynQgTBcOWDD7tWLjkyJSDM3Pt1EUHWrogNomzWjBlSWkPL93jCNs21u3hI2EAHf0zCITNOLmJQkNyMXt6xUq78667rcgmFU2CbSVcGAwabQX/Uv6RBAp7J9R94c1tt91mv/3ttT7TkIVOnEt35513+ByEG66/3jscV69a5WH/eP11duUVV9jadWvDWvruLj9w9tOf/rTdfffdasnL3lLNmzvXTYubb7nFZy7+6U+32RVXXOkHXUK4VQmIvnV9fjoxu9Iy8sAUX0Yqbr75ZsV1j1133XX23e98x5Y9tczNm3w+dDxuCjiPynlrPMYQ4CjgIsJPWA23ibAxemv6eVqtBNkaVvckg/bEPdqXe7t9S42gnYX6ZYNbhCE77XR1dbtGwTqCM1/1Snv/f73fXvziF9mi7baz9o42xwn9SkwgA9cwB458OC14Gq0Z2bKBPLOxK9dcXYKx0rDuuTPslscftLWcLSlLdZf0bHvHAS+0udYprTVooJQxKufWVN6NwTMuboo8A2uHJ7R+pn/fKWb5wpf+z/oHhqTuM88/tLREhYuQ0hp1Ix7CyDMMW0kt5VAWXwqt+zWrVrud3792je/RT1jObACidQuhdzu09nPnzbdbbrnZF8IwhPitb33T433pS19i737Xu1wbQGB845vfsLxMgbCUOqjBng/nmJDP8BzyF9RkwoXZmBSB4mB7R9BSLIeN0QBBxoJF7+UxLgoCeEfe+l7PHN9Efzxb4o4AHLnQUUYRSDApM0LZUARhiCbECk8+JgxlZWkxuGTbe7QwzLEDDzjQjj72GNtzr718BiHhHC/EqzRw0UhTwF1irMWMaGBrAsrBTkWUIMGGCLG6LcsM2rcfvta+csMvLJ5N2Vk7H2Pv3PtUm9loI9R6uPhngM0SCJAXAuHJp5bbRz/xKVu5ao2Ykz0PAkHgJkYXIYpRBmxTBQqx0UFDWH3LtOU1a1Z7Z+XoQL8NDYRVdHTiuFaiB8wTV9kFCIQ58+baJT+9xBZss8DHvukXIC42yKC1euzRx+wVrzjDnlLrHvJPPlorTffiMGdQ/w9CIQAVHO7cR+mHYkXvJwAE0byNIBgkzw1hWGpCyI3ER4gNBcKGaaz3peIJ5hC4C3Y95h47Z1MeHHtHoBH4tmgKyl4HmAWM2my3aDvvd4mYfAwUztMhakVCvaPtEQ6BszUD+PQ6of9Y5DaUKtld5eX2kYu+ZoOVgv3fy99tu+bmW7YhvDgCAvw/LRAGh0ftY5/8lN3/wENOVC4Q1FL45KMoOl25i6Qn5+7TSqEi02nHLkkshfYz6IpFNwloxUf711hRqjnE5T3izRY9xBsIm1u0hz323NNe//rX+TwEJhehbQzIrGCUghWLqxQnZzmOQ6g04vadl6K8erxcA+Pj738qV1R2/zb8bwiUsXkbwaYLhE0JpVxsJOGQ/fW/R+UnN55/DxBWwmHngx9Wq7JpCnsR+uiNcEyn6UEHHmSnvOAU32+AvgK+wZ99IDY+mE69KvWmwOaZ+BA6WzVQFIorV5OMpB4HrGi/fvRme2DpEvuPI19uqZi0KJkLyVABDv9PC4RCqWLfO/+HdvmVV42ZDGNj6UJMq6YQIcrH3uXPMxNj0Arq9Nxn0y4Y+tau83BDa1dZpRQOZHVTgVT1DbERU7B5zSe5QOCot6Ttw5F6pvORPMEAzqYQtNewf82nLhC4p9/T4yVYsxM05DcQOeWK0id8CBfK9VwQvtwEUHwhV88OHt/EgJ7AxFRC5yf5RKDSYlNeNKfOzi4xe7ePmNBROn+bbVyYnnjiibb77rv7N5SV8CRFfblN43bNOGw8v3y3EW1iawPqV87PhYR09FhKVq3fCjY03G87tM20oiqCA4UmBYKeEAhMTrn+xpvtc5//glp3dh8KAsAJiHC6B0E49xdhskMzIw/4EY7Tm0E8aGRbs9WrVvt9vk8awmjYMdbHfbH9ySJOEMWpF7qnAyuYEPgjdGghUV8ZTw8jExUF5VtiD5VGWL9vchitKWnhH2kgkYAYh80TCJusIShQyMWzA3FtNL4JHzMxK2QxTDNn7Ul3d491STMYGBx0XHFU+Ctedabtvscerg2EjUiDRgYOvB+FfHnc1OVGU54ABA6ZiXAU8LyVgeq9qvIOy17oZZtjIMtz0TrqNDEJq0hQsPS+VfRtlWXdCDyLQGhWqv9yL4ZzhheT6f6Bhx+29//3f8t2r8o/CAOiaiUGnJsHtLS6h1E9ZoXhvEbd+HsQu27NGt+JuTI65Cc0RXFtDNHuj4Gn3waMrAg8v5glygfCx4UCNnO8YMWa/GNdlhMzlFmXGlMLKQaI16UTltssWStKPaxaVVH6/vdkt64wJmHSFAz0Pqu9dXxsStWTn4CJcYCcNgAvy4YwEY/kCS/iACW85Z5UEJ6OU5UdjYk9HdgpiY5CVHq0JzafOeKII+yoo472vQfYsBT8eHmIMMoE6TRv8SJ+Xk+EKH/AeB2Fa2vetz5gmnJD7B+3diaq4pOoW6lRsbRaQ2rLd9eiwVH5orJy5Tk0ZIEXtkbz6TkEQguxNiA6MTc+Kviy5cvtvf/+XhscLaqFFwJEeEQVISYC99OVs+28pdcTrXE0bdmPk5cb6h8IpzkXhn0bdmLw0B5f86EVYixLgSFgWDnlLUqWDU/CuYAyLcTs8SSbo0yxJCZFIm/1bMxKEg6phtS+atbSlZLVkhIaTZFPOfW1u2BuhN+QBQKNlw9wRl/fi0g2zPJGwm2sDyF00EXEFXA6NodA97TyvIPgomf6VLq7uq1rSrfMsIz7AXvttZdxyCenLzOUSN3gtnpb/28I4DQC7llfw5A3a1+YwMYZkREeAXBNGJ8Yl0671hX1w1BPuK0FNksg8OAEKkQMj47aO971Tluxep0QFY5m82CKbj2BQDyeAtKU90jPsGbeQ+kegTAyMORnPNYqo9bfF/oTXAA1kToR2LGGPe6YDg1IiPvCkoQED0zrB13Q4idqluXo3IL+OzptZrHfhuWfT7WpMGKaVNlZPFFKWqaWkJAo+SIV4s8n2hUPR3ES96hl676XjoTN+j3p46Udh5Cr9WFj4Qg40R8c+vcgTOXw8jcnGPkkL3nTQQtT52QWsO8D2oD3zVQrNn+b+T5zkE1J2XvAF6M168W1Al2fCa+TEKCVLX7729/60nxW3SJUf/azn/lMTXAIPlkYx8rcG264wftsPve5z9mLX/xi19RaeWFrgM2jiCaBAt5JJbWTJ8jXiRjXek94/lufm+DfNZ+5p0UkcGvL5Z+Pf7IeqD0X80uNE1OnpXEgB4qpuI2m41ZiEZbk0/TRmHUPZy1VTFh7Wn6VEZdrJ6XS9sL0TNtjzr7WEZ9qSXF/G/FIGGDA5BNpK8Vzbt+nJASScqCqEEdAhI0+W4EsTnRkvLXcwW0YjnyjybS6mGx4xzNagvBB3wt9EtFBM2wGO33mDNt24UIffs21t7mGcNjhh9vHPv4xn5fBfgOLFy92YQBRQqituJ0UBs8OrYyMlsVxc2gJ999/v/3whz904UAYOrJvv/12FwZs+osQYLct8B3V+9YEm0UVkfoKB9NLzZx2f5AX/m47RaZD+GQMKa3Ogc90H9Auwpeaz5swihDCeJ2EABsAh2DSC5yrxKyjlLAOqQMZ6fyJmlpRcVkUc1yNOUdqZ0oV20PMdHYsbWc32uwtmS47ZeFBVj3i3VafeZyNJmdZPt4hYdApYdDmOcjW89ZRG7V2OfoSahIGNZ/QMwEIPNE9E2wQFkSs72qyVUOPfeggpZogMLYk3172P9OF2XAEFZZZhG9605t8C7nP/X//n2/qwhmG1abJgBCImD/CPfUUaXST8MwQCQWGaZmuzT4g4JXt3h5//PGx92z5xxoZgOnzTOLiHXhvFSxbA2yWQIjWJEBX3LNbUWuBo3vEAcTnK/ncZxz4NgiGQJjhXva6kOf3BCIeotKVODFRgt+4o48Akm80EpZspNT6Jy1XTlgbO99UZZLEq1bIcnbEsG1XLdor4532n9099oJUu+0iSb7H4Drb7rEltn3vApt97KsttfcLrThlF6skOeSlZqlqQZqBNBYlR57i0kKSdZkTPow5Ecj3+n8AfQatf6GszXfK/1g4F4JKSA4iChOwQicsjD979hypqGE9ASMA2KenvfSlvrCI+RYIhO0WLZLZ0OYtFHFEO0aDY4D0eCZ9rq3awiQ8M4A3cMX8DDplweuKFSvsl7/8pZsKYdr9b11TYAu/f/3Xf/V+BHC8NcLmCQQnqiaHyE31nW8g5PAOp5/me/1Ezh8jZmhe5YJACO8cgbryOT8hZLgHoufI1aShVBIpt+d9tTottyquXC1bKllX616xtmLFDk6bvaoja6/PtdtxwyXrUaufUlpTSiO2b/8SO3LpDVaXZtC2x/Os59DTzWbuZPVslzUUN/tscppBRczJiuFsoyAzJbS8zwUhn+v/wcy09LzxXZkkCCLCcfz5fbgygWibbbeVBjDfZ2IyUoB28O73vMdVVvaKOP6EE2zO3DluvjXR5PFEwD3E3Oq3tRLqPxLAH0xO60/9UR8IBITAT37yE59YRxg6b5n+HeE40tK2Jtg86oDKAdEXNDZmMvDbJLpogtJE5+9a7/2Xa7jje3dC5kSi9e8m/HG2Y50OARndrJIcSdVtIF20Uo+0DQmDnSrmQuDDyS57tTSGBbW1EhgFaQ5laQ0ZaQBm8/KP2gue+JXtuHZAjK6KnLPYZh/1cus94EWW797RhjLTrCgTgyIy7ZrDbaOJUX8O0OIjCCixr9NQvOw1wHgGx+RxpD57DCxaxM5D0xUuaGGvOvPV9u3vfMe+d/737bVnnaUw0/0cCfoYhIb13CT89QH6Y6LboYce6gfKohmwbR8HB11zzTVOt2wV97KXvczvaehwW6MWtvmjDArO5CTe/v66P9jnPv8lyxeK7s8EJK4bpUtn4BBnNHrgU5MRJHQKVmrWt3atWveGrV6z0hcnBQ2imb0JkTJ5JKk8pdnPToxaTFQkGyo2Q/cHKuwZ2W47opqz3pLsf87rE/8Mt5v1jCQtUZMGIK3i6YzZNTvNsW/u+mZ7tHeeFTJZZ3rpHpbsf8IG77jK7Mk7zAqrLJtQqy6VIW41uaCGPyt4tpt5HwNabASKzB21HpQtncm5WcBSbYgJgdEtm5WdoZlBePQxR/ukIl/YxZ/KhkwSakKME/Ay8XkS/jpAXeF+//vf26te9SpbK1rFhOOKGUE/AjtJR5231C9XvtmatLLNFghMQsKmh7nvvvce+9CHP2YjI3ln7mfvqFJrxrfNeNcTCHynFpLTmWg4EQgwBmEIjgCZCOlqw+cN5CVA4IKZpZodWEvasfE2O1YMNaswaNnSsOLPWFLMnIiVrEhcsTYbiFfskekz7Hfb7GOXbnu8Pd0z2wYzvTZarFu6rUNply0j4dJeHrDRx2+34r2/NVv7oLVXBzz3E4cdNxWYDIWWQLmyuaxNlxbQ3tFl5UrYq4HOwtNfdrofJzdD+WN6NkuWWWJMPZA2V6HRCW1TTjSehL8cqC+YGnrl3FFMAw4T4hlTgoleHB7E5rKYEQgFnNP3VqYlPKNACOTXCoH4xmYdqlVf+uST9r7/+qCt6evX23DKjSg1BB2/OKSEVPibOeLMEUiXpYKzpEz4ikvlSJdi9vjgoFmmbIXVq60+KPU/KQmLHBLDeKuoyHznO3km65zHyGKpmm0r/5P15rhMm+2oRHprVYvrilnQkMDgdKZ0ImWlesnumZ2x23fstNt3XmS3zNzT7q7uabm1EgLJeVZPdVi9UrCYBAjqd6wmoUC/wdrHLP/gjVZ57A5LDq+wdKNokj0qi3dr+qrNhPLE7ru6s3pcjKy0iCeviNLxlOKqSthkLNeWtandXb6xZzGdsbmzZ9v+e+/tZxMwvMXKQ4gIAoQQg0ahVJr4DD+T8PeEVhahTq6//no3D9hng+evf/3rrh20zjvgyndbk3YAPItA2BAIiovsJGZnvf19Z9vSp5b7OYqBiNXaE2WTgF0j0H9G4WHokpilKu6mw68aK1o1UfN9EbKFuD06MCh2GrJy/4Dlh9Si01Muxsmp9axJjc83KhZPZsRsSctWi9bbqNpeqbid2tFth4+WZS4w4VQhVQf053TVMwpftj4x5XDXNHuqo2p/OKLHLt97lt07b5YNJafLNJhmHbdPsUZqVxtk6+1Mys+ABOKq4EYpL6FQsmxxyNYtfcgad11hycElMi1kiijuuFr8VEPqfI35AkpdDMxhXx3KS0ytxLBlrCuXs0XzZ+tdwopl5bFStMXbL7LjX/F6O/6Yo2zu9KljAgBbFYgIaxK2DIhon3pilAFzjs12EAJsqIN2R51tbQJgImy2QAAoeGQefPoLX7Irr7nG9yPAn/0R6FgMrVmweQNIiEgy+GQffVpnXrjiqHMEr1rbRq1s6af7bHfZ6fePrLYbqiyB7rDOEXbCVThpEyPJqo126Fm6/z7SKE5Kd9nxqaztmh+1rMwKDsqgnzQXR2iNen8AZsVjuU67PBuzOw6ba3efup3d35NTK56TUEpYZz5rqy5apuZ+rvVus5/V2+bYiPUqXzI1lKeMTI1YQ3E1yhIaCcv0P2SjD99g1Qf+ZJmRtdapRKV/SNvJWClRt2Jc2pIK2JM26+lcYG3dc4W3YRsZXWeLdtjHDj/8GDvlpMNs991mWzo3X0JACJGWAyFFxASeJwXClgfQPHXEzl4nnXSS3XvvvT435NZbb/X5IJEw35phswQCQCsGsfIZ7vb7HrBzPvoxG5VtNTI66jYVB6U4iKaD9cuRWQwP1iyjprujUrcRetfLDInppVraRnmNHbkybyc3euy6wRX29eI668/k9CplNanmqWTFcjIzpkp+HKI0Xp7utN0qZr11aRBqccMAIaYFqZiNircKmaTdlEvZFcMFu1aew6ftZoOnL7aiWnHMlDZpArDz8Pn3mN08aLGunW363sdaefaeNpDoluTKKMqyWv+yT26CednBub02YPXHb7Li3ddYbMXjKlNNAkOiSCZAR2/WunulxWSylh9tWFfnDNtmlx3thS97sR19yFE2vYdFRewyNCStSfHHUtYQLsApuAW29lbmnxUiVlm5cqVPC2ekgSHIW265xaeIU4dbuyDfbMqLCswVwt1lpx1t/3321rM8GS3Afm9BDCYDiIwxJ1dMCbuiFeBfFmOq/RVjNGy7QskOrVdt+5E+O0oMcpR4o0e2ejGZt3hb3doKFTtM338i22PvyU6xPSV0ppbzlq2MSnsoyKaXOZFR7EpmSJL6/u6Z9pVa1v53bcEulaxYl223mhi8IvWfY3rjsYJVkwUrx/LWJlUiXhyx1PIHbfVV37PRP11ovaMPmOWfVkGV03SHzIiUxTnuu9ZheZtpjQWHW++Jb7T6QSfb4IJtrXO7ebbjLtvZrJ4ZFi912OwZO9q73/c++95Pf2RHvPwt9nh+umWmdFiStOsVCa5eYV+FjCO+pKBU5NfE6SRsmUD9RHUU0TfAPcJ8M9vWLRL+YurLqrU+7phjbP6c2dbR3ub6gAsEXqINgyM9pNSEsr6AFrnEyICuFYbyZAr0lkp2cL5huxfy1ptfY7vFKjIHMradTIPppartNlS0s9o67G2d0+0YxbEoP2BdjDyImWpi7GSSlZNmfYr2kc4OuzSVsy+sW2c/Kubt7ljCRhMdNixtYqQsTSSjgFWJIXqAlU968ruEhoSYNFEZtHRhhVXvutoGr73Aep6SSji61lJoICICtuduJKoyQ+I2lJluq7r3tOSep9vUQ8+0+vz9rNYz1459/qn2xS9/xc77zvl22mteb6NtvXbxrcvs53962u5fXpDwqvokJywultFKVIIp75WehC0XIo04Gi6OBDfXaCThn0GYP+euyxMhkpKRq0gjmDNb9nA6ZU8uXer9B4w20OKlkhwMEoZs0jLm6YCri4kRCAk15UwhSBWGbdfRvJ06UHRG74hJw6gUrEd2/2ipaDNllr2ka5qdGu+wxfmS5WrDqoCKlbDnxFkxtbIoH6szabu7rccuGCrZj0qjdqfSXpVJeAcj3RT1VNxqO3VbY49Z3rGQrad9fwfO6Uzds85GlqyWQJBJ06hK6yibDQzYyFNPWrJSsp6uTotls9IoUhZLSJikmHMhBq53WiU2xVLtM61ryhw787Vn2WvOOk2awjaW7MyajBD77A+utV8/VpKZ0m6N0dV26OLtrF15rsZkJrDQQkIsbPQSBEN0nYQtB2j9W7UC+grWrFnj9wceeKB3MLLO4Z+h7ja7D2Ei8DFzEhAAf/zj9fajn/zEVq5abcNiclaE0ckYkwmQlqbO0Fs5VbXRrOz3slpnmRjT1JI/L1+116wdtfbqOmOUjThL8aw9JRV9dVfK5lUTNnW0aOm6VPx0zfTvHZG+Z2us3dYku+37Uv8vKQ3ak9IIKrW48hSzPCuXU2rd2YlNFZo5cQdLnbm/VapJ19YL6bxZW95SFzxglZ89at3DjFGo1YZZ9ZdIi6nrKUvOW2zT9j/ZatN3sKFs0koikLTSjVfbFBfnHDQsG89bp621/ecn7S2nn2jbbZOyK29aK4FwnS2XNpGQJrOwts4+euaxduIeU60tVZB51W4p0RA7OkFMVMWkQNgygbqJWCXqR+OKZscqx2hV6dZef5utIWwIIAqVPeZz7zlFaeXKVTY8NCzk0IKL0GvY9owxiAtZICAVPSbWmzk8bAcMF+yYYtUW5EcUFba9RylhEbNuMWd3rWK5RtkSsv3RzIqcA1CNWVVxrm3vsOtz3fa1QsUuKRfsCTHrqMyHsjSItARAZ5kjukN/hTJpuQVtltxnro2mEq4ZWEr5kekx5d5hqz2wWqZBysoSKCV9W1E8SQmUeXOm2YzuNhtavtRm65usm0VxS0p7SVQxJWRqtMWsoLzXZOas7CvZb258yFaX2uzymx+0R4fS1shllLy0pkbWVq4ZtMMO3tZ64mXLSmj5rsgthDQpELZMoHGLzLpWxkdz8P07/0nq7y8WCBUxBucpcA4greqUqVOlRh3kG50uf/ppGx5m5CElRq76PISk1HUOzKyJkXYYHbVjCnXbc6QgG37YJyFV1GSWxSgJFhfpLyV7Py41nhN3GRlINDK2ui1nd3ZMsR9LiHxXZsYNibyVMUPEn2m9j8eVnhjQ6mUJoqzUIKnrMlXS28hU2KvHBQbzJRJi7JTy0/Fg1QYeXmtFaQbZXMrm9HbaNtOnW0euS2ZF3ObNm2tv+9cz7T/e+nI78fhDrDA8ZE8/vdYq6SmWb6SlkUhViVetKlzIfrABaQ73L11la5SFcjanH5lP0ngKjYT1F4vWm+2wA+dOsUwCISikxP55COqfEdAMImEQDT1G9cTMxNbhxq29/jbZZIiCtQb3wquFZdYim3vKw+mbjrJ8oWC333GnXfzTi+3+++4X49RspFRTo5y27GhZdnS/vWRtv504MGTbjAzJrKcvIKvv1eImpbpXy37WPqguYR4o3nqs0562nF2Wq9g1A8P2iFVttQKN6H26ErOMmv262LykuJhFmNaVQ7lMan9Z0iJ3ZK91vG5vG8ik3KzIyiSoV+o27cp+6/v9EpuquLszCZkkNZs1Y6btf+ChduiRR9te++1j3d0dvs5ijeLrl2Jx/Z+W2Y+vvs3uWJOw4fRUq6L5SAClpf5zz7bzHE7DKIUv/mBjFeEnl6rY3PJTduHZZ9guvQXL+vTjpMKyyAn8YkLwGWppE99M03RxuyFsUB+T8FcHcAxuo2vUpxBB5P/PAM8oEFoLyX3kAJDBfetQGY5nrvS6siSUK8hj844fXfBTG1UL3D80YlMKJdt7cJWdOTBgi4dWW64mhle85Vi3mJHWVuo3Lbq0DrjAtzxTS/t4LWe/lFZwoVVsnSQ2U6DJUVQA0lKG3EyJKrCOYEmlrSAh0Nirw7redJAN5ZIWk9BpFPOWzmZt0S1K48r7LTtQsR133NHOOOMM34KMjTFYuBIBcRbkJEPU4pftqYGSfepn99jl949ISHRLYKQtP9Kn/ChArk0Z01WCEJnQiEtySQVKNIo2Jzlkp+0z0973igNtmoRpShoQW7r6fATSkfN9F/SOTpWKpCFLpVkL0Qr0eIPjVmIEB1Gv9yRMwubCZgkEniNGhxiZhIQfRIhDrSIc7/DHRcJh6ZPL7KILL7LfXXOlTW+U7CX3PmUH1UZsRnnUsnQSKhfY7/F61tcFiLSlNVStQR9AImP3i4HPyw/blXq1LsZWZjA//QP+6Rj4ikplOxJaYl/xVdyqbdI+9u60bhcIYY2EiRHZgnyX21P2gil72akHHG277rrrWAcRcQCti1RijECw1qFWtEIiZ6vV8l97b8G+9Yvr7P6VI9IWeqyW6tBHsjmZSg1jC3zrtYTyUMlbW6XPFqYG7TPvPcsOm5e0zhjlFE4xiRjarMHoEmjCKRvYcupwWOu4YVWBd8oJRIJ5Eibhz4XNoh7spXe+850+K4v131/5ylfGtALsKBiHg1M59GP+/Pm+KgyChcF22m4n+9B7/92+9J/vsaNE7Mc1kjazWPbWs6xcQNIxMXg8PqoWflg5G5UgKOlezFEZtVmpqu3Rk2Rwwdpjo+JJhg7Wh0hoRUwRnmESNiPNWmdXp1rx0Aqzeom9C6vSEg45/FD7t7f8m+9MHAk54ogYDWEQ3XtOfeSkzdqkicytjdppi3P2+beeYIfsNE0teUl5FxMrlWos3XQyZXAygBoSGOXO+basMd0+ccH19lTRpHEEoZoQMhAgjLSgHfjeEEmMpqYmpDxMdBGQx9Y8T8Ik/DmwWQIBDWC//fbz7aYHpO5/+ctftuXLlzsRohUw/MKOs8uWLXNBwQowCJX7elpsqFZ+8cLt7NiC7Pf8oA8fJnw8H80iYcmaGJGGXzSN4x5TApW/ZzBmh1em20n1lGfaBysmQNi6fFxjQd2fOm2aBNgimzZthpJPWikvuz2t1lqtcIPWPp2ycp2zJYKqHW1BxveRlhM5Z7a4vk21y3QIjJ6SaZM1mSXKz+o166xSVqGkPQSpI5MJU2AMzfpeLX6lGrcR67B7n87bH+5aaQUJrIrChW9UaLQKpccJSxw5V5SJNTw0ZENyLChrday4Y8MO3kXrSyZhEv5ceEaBAANMBBji5JNPtj322MMFwBNPPGHf+MY33CQALr74Yrvxxhv9/rDDDvP53oRDe2AvhNhwvy37wY+s58ElCiENAMKXpoA6nVdLWBUz+0pFaRC+NkBcXxGz9IuJ0lK35xdSdmx6lnVKhtBmemOI4yJ7Paw1iPv8cja6ZMEJW5TPW7DAXv7yl9s73v4O627vlDYvQaDyxaUNwICFctG1BcocCYJWLSNqdV1QJGNiYOURp1xUJBSGLG0X/OZee7okUyHVK6ZXeOx/xa0v1OrL1Zk0ITwxdVpmAxueVFT2n119vT22rm4l4kOxoN8BUBQxlb0kLepd0soOOvggO+igg3wiDNcDDjjAHQezHnzwwfae97zHcT0Jk/CXQKD6TYCoheSQig9/+MNuBsA8rAW/8847fYtq7tEGaGlf97rX+f5yUb9CujhoduufbN1PL7UpBVYyiuKVekKtdjyRtpqInyPiYpm0lRAe3gmXMrGODbalbE2mYX1WsJlTOmzhjG5LxkKfhR8Pp/yl1erPmjnTTyxmLgTawU477WQf+OCH7Fvf+rZ98AMftMMOPoROEzGmvpXgYIcn9PNSrewjJeQzEgSUd6IDmJlZq1XcdCk3CjbQyNhv7huwy+5abU9Xp8q3S2298o6mg26gdNxs0ecJaSJsHZ9gNabSQnt4ePWI/fR3t9s6yYuqcCBkKA4F1jflclXCtmQPPXi/rZAmhuaFe+qpp3yBzdKlS333X/zYHjwSZpMwCX8ubNY8BBgdmD59ut1zzz22ZMmSMQHANtTf/va3nSg5pOKtb32r2+OR+p0YWmurPnWudd9wl1p7MZ/U4XoyI6aSIBAzJKQNJMTUTAqqiaFKVcUpofB0omGPN4r2sITB/emy3RofsSWlEVuD7S1hwXZjc+fP92WonFiEZvCiF73I3ve+99lZZ51l++y3r/KRM9YNrJZI+dUjf7S87JGanC+9FnMuqk+3E3c40Ho5i+E5GIoJUmnlJRUvuM2/YjRun/vRb+zetQkrpqcpQFKmT15xw9T0HchskHlBH0KjIRuffgTd13B0MkpIrF270g7YZ3eb1ibBJmFAKARCLJGyjHAyfUqvtLLd7aijj3aNAHfIIYe4hhZNocWUe+ELX+hCclIoTMKfC5s0DyEKAmPD4AgBTAMYDzuWU4NokelbQIO44oorvLce4iQsBLri/PNt6Ve/J+aTHd8d87n+w3OnWGVKt7X1TLEO2fqp6d22Ltdml1/1W7v6l1fa2r4BMRgadl5qfclGZUdU4ynrSHRaamqPpTvb6Bv0BUr77rufBNGLfFJUJzsSKZ+kW2EkQYJFirrd3XjUXnXxB22lbP5KksVV8lVTf1xxN/u/U95r26emjWkIzwS1SkktfBgarddjdtMTo/a9K+60pcNJWzlUsXy1ImFWtpKEQL4Ss3I9IRMo46MIcTE4GoPQyMJPFxDpWNF66gN27I699uk3H20zUBIUB2cyqABCesM1C2ZUNM+68vpg+++XvvSlvjYfbe2nP/2p77qEcJ4UCJPw58JmCQQIDTsVomMqJ63wd77zHe9DgJEIxxkBn/rUp1w7iEYeeBd/apm4QGzgZm7GrEME3ybqFzP79KOqrjAj246Vinb9n26zL3/n23bnHbdJN8+LMWq+u3IqlbNcldmBRbX++9jJJz/PDjviCJuOQEmnLIspo3BRfjjurVrUVek8nHjSTr/wbFsdq/jMxnKsoCY5ZkcO72Rfe+H7bMf0DP/u2YC+DTo80RTYkGUonrFRyQe0nJq0nmEJwGX5uuVHyzY0VLTl64btqb68reobsZVr1tlovuR9BcyTLFTqNpiaYimhYXrhMfvoq4+xkw9YZO3KAmkAbD6bBGmYXhIm4J+NPdn9Fw2NTtA3vOENfpAI0LqN1yRMwubCZgkErhGxIRC+//3v27vf/W4fjuQdgoLDQ9iVNhrLR6vAsYinjGHNQqdi3IpJ2bviBGLmQGY/ix9ebF7pXFw3OmJ33XWn3XvXHfb08idtdDSvNFK2YPY834Nh8e6Lwx6EYvYobxx3BkTbpdfREPRH2kviK+20Cz9oT8rs4Mz/mowOGO2Awnz75qn/YbtlZivpUL4YVy92dA1A9sifH9Iaj7nmwRdxCbtUTHFKoOR9fqU+U1YQGlW5ksrIhCYpO9Y/WLK+gUFb1z9oT5WyNliUxrLqEdttRtrOOPlo65SQIk76XJMuGfShyldRmpTzs5/9rH3sYx/zNOgnueyyy2zmzJkuzMDBpECYhD8XNksgANzjMA+e//zn23333TfG9PjTA476ik0f2bO4jSXTSrjR+40RM+/QNLjy3tVi/hSUrzAbAvjYQ/M+APa4d+DF6vZ4o89efOGH7eHUOislylLF9a3MiV0rvfadU8+2vdJzFT6IhMCSGyTgXu6aQJ42VrYIovIDUbjWK+sbWAbuIZQfZjIzhIk4I9+UKEDMd6R68skn7eijj3YtAaFLRy6mA9pYpN1sDIeTMAmbAoGCNhEgYBgfEwFT4e677/ZnOrnoM4Ag2U6K4ccoLMQZXSe6VtiYXwTEixBAwIyp9ArKdvD+nbNT+Da6wzGQIYNFLbQcPr4HAZOM9FLMx3tZKFaln0PNd7IucSDm50+vXRuoKH6GBKXUuGNHpk2FZypP5M81I0sJ7UkywdJYUC014uEQRsowApH5BkwMQxiAD6ZY04GLMCAsmtozpTkJk7Ap0EJ+zw2RFsCus5wpCJHSSr33ve+1s88+24mRMJ/+9Kft4YcfdnuX8PhvzE2EjfkBrXEgEFwotITljoK4g9GbDn8Ym3aWGQFxqfIMc/qsZ1pe6eRc61UJBOYO1BRD0zEHgqPlU/LOKI7IwbibAq1lIf8TYaw8Sh8Dg3lbCYUjfsox9rVufFqD8MrxYZwyjDBgNAXhEOEEQGBOwiT8JRAoaRMBwoPJv/CFL/jYN8C5+JgJqLH77ruvEygtGOcPEh5CBmCKiS6CiDla71tdFEcELphgaMF6rDaR7/SMBpCUS4nBM2K3TD3pjI6/MuEczroInxgkfR313dc5RBxJOAQIDs7keQJEQqrVTYSJZQYoGzMmfW6CdJiEdBJEV3AhLL98dscdd3rHYbSW5CMf+YgfUc7oDvjAke7ENCZhEjYHNlkgQGhoBOxB/+Mf/9ifFyxY4K0UPduc88g9owsIjUsuucQnzvw1wPsMYB4BVwhfomJ93nTOabomIDToJ4hVFYccY/zZWML3RSEGgjIfoSrpUJRKgVAoKZly09EZyChF3acSEyORcX1uiPLbCq1+0T2LmNgsRmqK+ZJn0hBuI4HHPhOj+bx94dxzfUIS+D3llFO83yCaHEZcG0tvEiZhc2GTBQIA8X3ve9/zSUgQJnvTz5kzx4kRO5a95U444QS/X7VqlX30ox9dj2CfyW0qtIZt4fuxB855EPsS0OpxsVkUvCw/mQVJvc2l0j5LkQ47NAE/8YHmX1dUd1R24qj6kmTGIepWlCvFalZCgyC+Fni2/LeWcaJbD/BDq2A6o0ucUKBioeh9HpdffoVdetmlLoTRCN7//vf7uhEcoz045nugPWwQ9yRMwmbAJo8y4OjUeu1rX+stPzbsuWq10BKwXdEeIEZsXKY2M2Fp1qxZ3tcwdWo4meivCRFjOgtNKEGFiTxiLu90lJqfkYmAzr82MWpv+PW5dv3Qg9Zvw96bV0umbPpo1n527Nl2aPuO6P8K22QqRczoIicwBeGCzb+ZUvQ5ga7LqDTELKEjIcqVmhkcHLSjjzrGHnr4IeG46njnFOJIa4oELtrCZz7zGevp6ZkUCpPwZ8MzCgS8I8KKgsD0mAMAfmgCAMwe+Uf3hEWLmKju/7VgYwKBBU4NpQ+LVdXK0rqX9ISpUG0ULC+h8K5bv2lXPXmL7ouWyqasrG9n5dvtuye+x47o2sFNCWd7JRCXCsE2a7FYUpErJdL5K0uEYBo0C+AQ0gG/4JD+mF122VXCeMTfIgDAa4RnwvFMWE4Q2m233SYFwiT82fCsAgFoFQo4CBL1FCKM3uHXqgFE7xkGQyC0CoW/FrS2qWP8pCQqEgqsI8hLHBRlJgwmOWmxKuau2nCsYB+982K7+ombZQKUfHOUaixhM4fS9uajzrAduudbgxlE+YrF81VrrybtgF32tvZGytpiKUuGhju4vxKQ9fEK4A6BBL4l3KSegMt3vetdPlUZ/INXTAQAvCIUwD3bgF900UU+Uau1LiZhEjYHNksgRFcILlJVI2HAFcCPZ1osCHZiPH8taM20x4yHHAuWRmJVu2/1k/bTay+3x7tla9dHLZWXhiDhcGeyzwbredQdZ71KOmntBZkV1ZQ0iYSx20JM2kBvqc2OnbWXvfn4M2xmslv+MZkeDGD+dcvSzPYYRDGzEhP8gVcEKw6I8A9EuI/8EBbRnIRJmIQ/BzapD2GLBHItusc8ABhNcLUhXrOBeMkes0H71E++ademHrP+Rr/1VsVYqYYNpyTIGmlLs02TIiil9atvONKdLsN6neGIjE3vl01+/Nvt+TMOsN5G0qcoc+isJ9qcFv33hE2tpklhMAl/CfxT6JbOKs4HuhPjMN9gmnXZ8w852rrE/JlERgzd7BOpyvSJNayUYjdn6Qj6JE33hwQGuxPVazHLFeO2a+ds233GttZGL4IEDZOSvIfxHwTkfVPcJEzCXwJbr0CAN+UiFqDPLxq2S4mJOU7loAW72h7dC6ytnPK9F2rsVaA/cQ6rhtyl6nI1ZgvSGSlzR+G68gl7xZ7H2DzrtCRLE5WOlAgXNuMp/n0BDWGim4RJ+GvD1q0htAgE78FoDjdgPrSpaLOsw87YW4wd77KYGH1UH/hqyIiXdE3KDme5dIyOz3jS0rGsLZ6ynR2/zb7WU2fPxETAEisNETj/GHmwgSYwqQ1Mwt8C/ilMBgAeZ94B9j3Dhm2NlLU3Enb4tF3s4Nm7Wpyph2J630cR1V8tvs9Y1H1ZSgMmBTu3JkYbdvjCfWxGo1OaQ1gb4P0UwlSdzlP3+cfApIYwCX9r2OoFQms7KTYJpgO8UuMMyITNbrTbi/c8yjrpNEjIbKjIMFCgdLVhaTYoEFRTdCfqWQJgjvXYkYv2t7ZaVvGwa3JDgkC/CWkXHvofB5MawiT8rWHrFQgRP4j5mW4cWFrMK7MhtJ0qmhg/XknZ4s4FdvpeR1luuG7xZNotC+YUsMCpwsdgQaZBVzVlL1p8uO2anm91XjSnPwdBwygEAScZcRL+eWHrFghN/oxuAdp8tnOvj72PWW8ja2ftfrztUu+yTkv7voZso16KN6xC5yLCQebCvFinvXjRgTZN2gTHyRMGjSM6WYG1EFE6kzAJ/4yw1dI3jO8KP+qAHPwP8FiTEICZad0res7UUza3nrHT9jrc4iNlheX8h4YfIstyZyJKlmu2/7Y7225ts+hQsARdDYojobC+VFoQQ8o07ydhEv4ZYatu8FwIRJJAN6E7UY5RA7xgaPoF9dwd77QTdjzUdsnOs2w1bO3GsWmpas3j2KbSbcfN39+y+mNkkpWQICcgSL+oCmNpTcIk/C2g2bpNaHXGfPVDI8gKXe/b+v/bu5YQOa4reurTv+n5drdmpNE4crAC0sJRZEhMvHFiSwRBkkUCBoGzNgHvvAoCLULsjZEMDhiytBbOKij2wmAIWWiTQHDkfGyMx5LlGWuk+XfPtz/1yTm3qqQZhaykCbi7jnhTn35VpX5977n3vvfq3fS8YW8lS4AUJEUd6Jn13FussuqppIcsibx/DaH/+B4usD/6J2vuRRG3LDzvhgFc7mip1W+6Mzh/6hzq4TCKsYeK56LSZaOFIX409RS+P36SzoGDttJR8wG+iEUNSjIQxWjtBPFCjhwHD2noHqSH2iRkYD1m9vcetCsBlWtrgkrN36vwIgIeJscZM6g+N5qcx+3XlhD+F8zyu3pDMdVcbdkAJX7VKknhzBPfwYmhKcSdGNv89rvFIo7Fo/jBt7+H8fIIa6g+L7Ci65OSE0GOg0cqbFaERGllzhyt8sOica8C41xfBg+7lOoW6zT52ZZ9bpCwaoTMKSL0ApZVhsbLiPw1RIUd7mu9D4bNodIJutihnLcZOotH+o4QhH3DcnrvgF/eY/xfCl3MdEr0En6Iw96YdRT03CK+WzmGkxMz9AYYQrBJikqqklxN8D66374fKkeOA4AM0D7ohEy6FF19X3qjhkWZz6nMCKos49wfp8Eftrd8Q3cHgd9C19vgFW1eWeYd6gjjQ6SSmugEUbTDcFnL9lGq412U/WUU3HkE7X/yuM9nuARUcp9f3dpViLr4orCKX127gj+u/htlMunl0z/Hz554DtW4zIZK+iFM9e+RSvLTiK9FFDkt5Pj/IPEQ9pW4SFlOJswZJIySTwtn0xXDWLRcr3wIDcdr3o0pv31EclHmsbiJoLOC3Z1ZrC5/iLkv57DV2uhvQtBX07qI6lgpqJdQROtG2C208f7SP/Dr999Grd7A7378S3zDadhohOpqGjNpNCGEVPuzAYZ7ZJEjxyOFpEtF0pVK2D7NTAmB5s2yh7GKIxKIg+QVHp2TjNPA3b8NPQllHGdogXALYWcd7e0lrK/OY2XlFlqtu4g6TYwVYzQOTVIXDvW/h9Bl60iJtfKyQiu1aS/Yxoq7jUt/eBuPnfgWfnHqLEZIBsWYzJuuNbAXdp22LNbOdpQjx6OEXFgpvORPik0pk8BlPCCh42nF+W1H7r6GxHkc9azz2xVD6Bp1goe8V7TJa9ZYeYcewC189tlfsbj4MXyvhfpEBTPTj+NwYwYFfzIJO5RSkffqe0LQEI1GCPQv7XKhJ9BDGLSxuLGGoFLGeLWGCplVORgeXOtgby+u2ju5U44cjxbJxHi9bys1TwlBRJDBxJCy7Ia2ErjU1qXbqsAAwQ4Fk6W7jO3NOSwt3sDayixaa7O0b22MjpRIAlNojD2OaukonQySgNQ+7JAIaDKLvWTQQbLd74SgJLFq3y6bTl9USu9ofDYkG2q1IUdp531jWc1EzHJCWrM8QAC6PieDHAeBLPZPCIFSJmGzIqJgzC/3X6QhF4GSimiLQr2I3Z0FrK3exJ2Fz0gEtxAHXTTqNUw1pnBk8ihKhRHWr7DwviIAj/dy1TEp8yiCUWayZFTOc70BIIQevzjbYpdfVkOKBU1d9EJ04y55woEbuAhKRauaUEaCrFn03oNt9Yf7rr0CndNCjofDg2pnRxIregbaWNaQWMJKIpACh1vodlg2b6F5+zoWFm5jc3MdxYKH0dEqJibGMDY6giF6vL5foLEr8SZl6nxCNJqgE5Nc1O8Q6pV/ehdaPNh0IOmQ0MMHgBA0E1EeAllQhOCSHyIGD4vrS2g2W/ACB7XDR1CtDrFxkyzSahitV3j79gLauzvWwDNHj6JsqdZ5s5wP+hjJ75/8yCz7tIMH6sgzS67PZK3/WxjsErMksu76XKZGx7pOnyf/pPxapUsyJb8gmV1IAojbvHQTYVujAEtotb7CyvIcVlfvIOquYawcoUEPoDZxCJXKKIqlIT6GXoOU2uSdW7fAsJgKToF3Pa35IS9D629KfgsMEfREzybyOeaF8BrKfv8TwgPQ19WCpW+88YalpNNCps8//zzeeuute7kRtVCpck+8+OKLuHHjBoaHhy3l+vHjx/P8iX2O+647Fcd67ZPzthUZUMFUR0v0Q53QewhBVazIEiuTMOvbzGEqvSt3XJ8xhI2jgHKkK6mINpOQJdxmRZbuBhbnP8Gtz/+O9ZUv+JxN1GtDOHKkjsnJBvxSnVfV4MmrtVm0eg6JxTyBh8dAEoKs/7Vr1yxzspY0VyKZq1ev4tSpU0YGWjH69ddfx2uvvWb7Z86csVyV1WqVbS9Gvy8EOfoNUiyphBQ+/Z1TDUkOSQqy/uYdEDb2T0WWa09Vla13UKauMm6nFQ5d+qNOD25UQlG6qyhAj5Cr2r2J7tYntP4fY3HtcyytzVnqvomRCUzWDqMxfgSV0gQK/jjraxISPVhnB05xw2TYSICyeN/lf3gMrIegoixU7777rk11Vu4DJVCVsq+vr1vi2mazaXkOPvjgA5w8edJyJCiPZY5+htRBJVV4QfqvIr1LtUXzUlQMPGcv1MVJSGB1TK3SYlOKtxF37qK9NY+t5pdYmP8Uy3e+oJJ30ZiooX5oCpPTR1EaKlvHoN2EshjTzdcEI02vU1ggutG0ZVNbkQC3esqjMlIDSQiCCEHhgLJWb2xsMCZrmJfw5JNPWjjx6quvmvdw/vx5vPnmmxY27HtHIkf/ItMI6Rs3dsg/95Rdh/pMU/+0Q2bQUnxJn4E8BU0GotfQbmF340usL32CO3duYmPrLoqFENXhMmrjdYyPTNIDqKPgDjOcZ0zv8XrNJNSioFrqO6I74bsISACWeFx9DbEHP0re1pUsy1MQJJuPAgNJCFmRxX/55Zctga0aWF7ChQsXLGHtRx99hLGxMVy5csVCBjW4Gj/vQ+hz7NUG6To3ssHJFGDrdOMJnjXDIKVVJ2CH220Eu8tJJ+D6PJprX2F19Tbi3RZqFQ/jtXFM0NscoUzB1wiALL5S8FGRZfl1P93Lph2qE1Cre3l8FJ+njmz6BloMmILLPUL1dWz793cfFgNHCBnkIYgErl+/bl6CvIHTp0/j4sWLeOGFF6yOOhUvXbpkadIsZtOPodWZTRhy9CWkDVIJ/sbmBdipkLF9m2FBB54st0YC5NZ3txBGm1i8+yk+n/0bWs056vIm6hPDmJ6axOHJKZS9OuuOAiWt0ckbSsGl3woj9E4Bt7EKtVrJABLowQ6V00s7L0kBNiog8ujxUF7IwWAgCUFfWQou5Van4UsvvYR33nnHFF0Zq+fm5qyj8b333jOSyLJbq76QE0IfQ9bfaIDWOSUEhQJxuEl3fQNbKzexvHADK2sfYnPnX+h1A7r+dTQmDrNMY6Rcp2WnF6CFdrpUcj9Ap9Thbdv0/ilDVH4npLeh92a0kG9YpbJzy3ChV2CoYTFJ0hehfgkVIyidNs+Em0QMDwQD6yFIwRUGaDs7O4uzZ89apmWFETqvDsfLly+jXC7byIOaSSUjhRz9Cg0DihQKe15ok4I2sTL/Ia7+/rc4ebyBxx+bQr1RQ7k0zLCfLr9XJmnQzqtfwaUFd6TcXVvfs0uDordopeSSHhv7N97RA9KH0MhErGtvLcoToNbrCr2pmHgJaX1eqOnLBwU5LwMHeQdZJ4ys/fT0NM6dO2fHOq8OxldeeQWVSsXIIDufXZOjn2Gal+ym0LwDzRos0FVv1Bw8deooZh6ro+yXqZ/0NEvS8C04hR3ySIe1Q/7TRPhh+FEFQ10f5aCEYneIXDGCmCFEGI8gcMro+R56RZKAm76bYCUhIZFTxLAi5HMjjwTj8/4imwPEQEp4ptgZMShr8jPPPGPnBIUJx44du1dPpKG6eagwCNBvzN9drrv0XEdmxdXBRxlwt1EpF3lM612ksbBVu3dp9numrBG6cDwZj3TqcMxt5FO3bcAQrqP5skl/QPL2jM9r6I1oWFGxgHkGrnkGerZ6FkQMGtGI5B1kwxwHhIE2eZn7r7kFWTggEtCx9lUyEsi9gwGBBegqevMwIQRTk7BIWaCc0FoHtPqIhykzqVI7Fe4zZGBxLC2wrkqGIOXexx7VmmY/JmHEDsmDxUUHvrwOhhnFgASie/Exyj6mDkbdQ+sbuCQTNyqw8PkR722zIw8OuZSnkMLLC8g8gazPIEeOQUJOCCky5RcZiBzy8CDHICInhBQiAYUIIgZ5CUJOCjkGDTkhpDhx4oS99fjss8/i6aefNoLIQ4YcCQbHMAzsPIQM+vpZ0ezFIAhs7sHeKcq5pzBAMG3gH73FqA48/vTWsR9uorX4F/z5T7/BT577KeVjFBp86DcMvIcgZc+Khh+HhoZy7yDHwCIPGVKIELJ+hKxTMSeFHIMF4D/NW7LONCG0zgAAAABJRU5ErkJggg==;" vertex="1" parent="1">
          <mxGeometry x="50" y="50" width="375.26" height="280" as="geometry" />
        </mxCell>
        <UserObject label="&lt;img src=&quot;https://lastminuteengineers.com/wp-content/uploads/arduino/MPU6050-Module-Gyroscope-Axis.jpg&quot; alt=&quot;In-Depth: Interface MPU6050 Accelerometer &amp;amp; Gyroscope Sensor with Arduino&quot;&gt;" link="&lt;img src=&quot;https://lastminuteengineers.com/wp-content/uploads/arduino/MPU6050-Module-Gyroscope-Axis.jpg&quot; alt=&quot;In-Depth: Interface MPU6050 Accelerometer &amp;amp; Gyroscope Sensor with Arduino&quot;&gt;" id="MjAnz1sWViExLMEf2HKq-2">
          <mxCell style="text;whiteSpace=wrap;html=1;" vertex="1" parent="1">
            <mxGeometry x="450" y="40" width="30" height="40" as="geometry" />
          </mxCell>
        </UserObject>
        <mxCell id="MjAnz1sWViExLMEf2HKq-3" value="cam_to_imu_T in world frame in millimeters&lt;div&gt;&amp;nbsp;= [3.779, -37.178, -70.528]&lt;/div&gt;" style="text;html=1;align=center;verticalAlign=middle;resizable=0;points=[];autosize=1;strokeColor=none;fillColor=none;" vertex="1" parent="1">
          <mxGeometry x="150" y="385" width="250" height="40" as="geometry" />
        </mxCell>
        <mxCell id="MjAnz1sWViExLMEf2HKq-4" value="+X_cam = -Y_imu" style="text;html=1;align=center;verticalAlign=middle;resizable=0;points=[];autosize=1;strokeColor=none;fillColor=none;" vertex="1" parent="1">
          <mxGeometry x="100" y="438" width="120" height="30" as="geometry" />
        </mxCell>
        <mxCell id="MjAnz1sWViExLMEf2HKq-5" value="+Y_cam = -Z_imu&lt;div&gt;&lt;br&gt;&lt;/div&gt;" style="text;html=1;align=center;verticalAlign=middle;resizable=0;points=[];autosize=1;strokeColor=none;fillColor=none;" vertex="1" parent="1">
          <mxGeometry x="100" y="463" width="120" height="40" as="geometry" />
        </mxCell>
        <mxCell id="MjAnz1sWViExLMEf2HKq-6" value="+Z_cam = +X_imu&lt;div&gt;&lt;br&gt;&lt;/div&gt;" style="text;html=1;align=center;verticalAlign=middle;resizable=0;points=[];autosize=1;strokeColor=none;fillColor=none;" vertex="1" parent="1">
          <mxGeometry x="100" y="490" width="120" height="40" as="geometry" />
        </mxCell>
        <mxCell id="MjAnz1sWViExLMEf2HKq-7" value="Thereby&amp;nbsp;&lt;span style=&quot;background-color: transparent;&quot;&gt;T_cam_to_imu in meters =&lt;/span&gt;&lt;div&gt;&amp;nbsp; [&amp;nbsp; 0, -1,&amp;nbsp; 0,&amp;nbsp; &amp;nbsp;0.003779 ],&amp;nbsp; # X&lt;/div&gt;&lt;div&gt;&amp;nbsp; [&amp;nbsp; 0,&amp;nbsp; 0, -1,&amp;nbsp; -0.037178 ],&amp;nbsp; # Y&lt;/div&gt;&lt;div&gt;&amp;nbsp; [&amp;nbsp; 1,&amp;nbsp; 0,&amp;nbsp; 0,&amp;nbsp; -0.070528 ],&lt;/div&gt;&lt;div&gt;&lt;span style=&quot;background-color: transparent; color: light-dark(rgb(0, 0, 0), rgb(255, 255, 255));&quot;&gt;[&amp;nbsp; 0,&amp;nbsp; 0,&amp;nbsp; 0,&amp;nbsp; &amp;nbsp;1&amp;nbsp; &amp;nbsp; &amp;nbsp; &amp;nbsp; ]&lt;/span&gt;&lt;/div&gt;" style="text;html=1;align=center;verticalAlign=middle;resizable=0;points=[];autosize=1;strokeColor=none;fillColor=none;" vertex="1" parent="1">
          <mxGeometry x="325" y="438" width="210" height="90" as="geometry" />
        </mxCell>
      </root>
    </mxGraphModel>
  </diagram>
</mxfile>
